%TF.GenerationSoftware,KiCad,Pcbnew,5.1.8-db9833491~87~ubuntu20.04.1*%
%TF.CreationDate,2020-11-17T16:36:07-05:00*%
%TF.ProjectId,mfosish_ww_supply,6d666f73-6973-4685-9f77-775f73757070,rev?*%
%TF.SameCoordinates,Original*%
%TF.FileFunction,Copper,L1,Top*%
%TF.FilePolarity,Positive*%
%FSLAX46Y46*%
G04 Gerber Fmt 4.6, Leading zero omitted, Abs format (unit mm)*
G04 Created by KiCad (PCBNEW 5.1.8-db9833491~87~ubuntu20.04.1) date 2020-11-17 16:36:07*
%MOMM*%
%LPD*%
G01*
G04 APERTURE LIST*
%TA.AperFunction,ComponentPad*%
%ADD10C,3.000000*%
%TD*%
%TA.AperFunction,ComponentPad*%
%ADD11R,3.000000X3.000000*%
%TD*%
%TA.AperFunction,ComponentPad*%
%ADD12C,1.600000*%
%TD*%
%TA.AperFunction,ComponentPad*%
%ADD13R,1.600000X1.600000*%
%TD*%
%TA.AperFunction,ComponentPad*%
%ADD14O,2.000000X1.905000*%
%TD*%
%TA.AperFunction,ComponentPad*%
%ADD15R,2.000000X1.905000*%
%TD*%
%TA.AperFunction,ComponentPad*%
%ADD16O,2.200000X2.200000*%
%TD*%
%TA.AperFunction,ComponentPad*%
%ADD17R,2.200000X2.200000*%
%TD*%
%TA.AperFunction,ComponentPad*%
%ADD18C,2.400000*%
%TD*%
%TA.AperFunction,ComponentPad*%
%ADD19R,2.400000X2.400000*%
%TD*%
%TA.AperFunction,ComponentPad*%
%ADD20O,1.600000X1.600000*%
%TD*%
%TA.AperFunction,ComponentPad*%
%ADD21C,2.500000*%
%TD*%
%TA.AperFunction,ComponentPad*%
%ADD22R,2.500000X2.500000*%
%TD*%
%TA.AperFunction,ComponentPad*%
%ADD23C,1.270000*%
%TD*%
%TA.AperFunction,ComponentPad*%
%ADD24C,1.800000*%
%TD*%
%TA.AperFunction,ComponentPad*%
%ADD25R,1.800000X1.800000*%
%TD*%
%TA.AperFunction,Conductor*%
%ADD26C,2.000000*%
%TD*%
%TA.AperFunction,Conductor*%
%ADD27C,0.254000*%
%TD*%
%TA.AperFunction,Conductor*%
%ADD28C,0.100000*%
%TD*%
G04 APERTURE END LIST*
D10*
%TO.P,J3,2*%
%TO.N,Net-(D1-Pad2)*%
X86000000Y-73000000D03*
D11*
%TO.P,J3,1*%
%TO.N,GND*%
X86000000Y-68000000D03*
%TD*%
D10*
%TO.P,J1,2*%
%TO.N,Net-(D1-Pad2)*%
X74000000Y-73000000D03*
D11*
%TO.P,J1,1*%
%TO.N,GND*%
X74000000Y-68000000D03*
%TD*%
D12*
%TO.P,C8,2*%
%TO.N,Net-(C2-Pad2)*%
X111000000Y-101000000D03*
D13*
%TO.P,C8,1*%
%TO.N,GND*%
X111000000Y-98500000D03*
%TD*%
D14*
%TO.P,U2,3*%
%TO.N,Net-(C10-Pad2)*%
X117000000Y-110040000D03*
%TO.P,U2,2*%
%TO.N,Net-(C2-Pad2)*%
X117000000Y-107500000D03*
D15*
%TO.P,U2,1*%
%TO.N,GND*%
X117000000Y-104960000D03*
%TD*%
D16*
%TO.P,D4,2*%
%TO.N,Net-(C2-Pad2)*%
X127160000Y-118500000D03*
D17*
%TO.P,D4,1*%
%TO.N,Net-(C10-Pad2)*%
X117000000Y-118500000D03*
%TD*%
D18*
%TO.P,C1,2*%
%TO.N,GND*%
X63080000Y-93500000D03*
D19*
%TO.P,C1,1*%
%TO.N,Net-(C1-Pad1)*%
X63080000Y-86000000D03*
%TD*%
D14*
%TO.P,U1,3*%
%TO.N,Net-(C9-Pad1)*%
X117000000Y-82040000D03*
%TO.P,U1,2*%
%TO.N,GND*%
X117000000Y-79500000D03*
D15*
%TO.P,U1,1*%
%TO.N,Net-(C1-Pad1)*%
X117000000Y-76960000D03*
%TD*%
D20*
%TO.P,R2,2*%
%TO.N,-12V*%
X147260000Y-114000000D03*
D12*
%TO.P,R2,1*%
%TO.N,Net-(D8-Pad1)*%
X139640000Y-114000000D03*
%TD*%
D20*
%TO.P,R1,2*%
%TO.N,+12V*%
X147160000Y-76200000D03*
D12*
%TO.P,R1,1*%
%TO.N,Net-(D7-Pad2)*%
X139540000Y-76200000D03*
%TD*%
D21*
%TO.P,J2,3*%
%TO.N,-12V*%
X145250000Y-100000000D03*
%TO.P,J2,2*%
%TO.N,GND*%
X145250000Y-95000000D03*
D22*
%TO.P,J2,1*%
%TO.N,+12V*%
X145250000Y-90000000D03*
%TD*%
D23*
%TO.P,F2,1*%
%TO.N,-12V*%
X146000000Y-109500000D03*
%TO.P,F2,2*%
%TO.N,Net-(C10-Pad2)*%
X140900000Y-107900000D03*
%TD*%
%TO.P,F1,1*%
%TO.N,+12V*%
X145900000Y-82200000D03*
%TO.P,F1,2*%
%TO.N,Net-(C9-Pad1)*%
X140800000Y-80600000D03*
%TD*%
D24*
%TO.P,D8,2*%
%TO.N,GND*%
X141000000Y-121540000D03*
D25*
%TO.P,D8,1*%
%TO.N,Net-(D8-Pad1)*%
X141000000Y-119000000D03*
%TD*%
D24*
%TO.P,D7,2*%
%TO.N,Net-(D7-Pad2)*%
X141000000Y-71240000D03*
D25*
%TO.P,D7,1*%
%TO.N,GND*%
X141000000Y-68700000D03*
%TD*%
D16*
%TO.P,D6,2*%
%TO.N,Net-(C10-Pad2)*%
X134160000Y-95777712D03*
D17*
%TO.P,D6,1*%
%TO.N,GND*%
X124000000Y-95777712D03*
%TD*%
D16*
%TO.P,D5,2*%
%TO.N,GND*%
X134160000Y-91180000D03*
D17*
%TO.P,D5,1*%
%TO.N,Net-(C9-Pad1)*%
X124000000Y-91180000D03*
%TD*%
D16*
%TO.P,D3,2*%
%TO.N,Net-(C9-Pad1)*%
X127160000Y-68500000D03*
D17*
%TO.P,D3,1*%
%TO.N,Net-(C1-Pad1)*%
X117000000Y-68500000D03*
%TD*%
D16*
%TO.P,D2,2*%
%TO.N,Net-(C2-Pad2)*%
X68160000Y-122500000D03*
D17*
%TO.P,D2,1*%
%TO.N,Net-(D1-Pad2)*%
X58000000Y-122500000D03*
%TD*%
D16*
%TO.P,D1,2*%
%TO.N,Net-(D1-Pad2)*%
X68160000Y-77500000D03*
D17*
%TO.P,D1,1*%
%TO.N,Net-(C1-Pad1)*%
X58000000Y-77500000D03*
%TD*%
D12*
%TO.P,C10,2*%
%TO.N,Net-(C10-Pad2)*%
X117000000Y-98000000D03*
D13*
%TO.P,C10,1*%
%TO.N,GND*%
X117000000Y-95500000D03*
%TD*%
D12*
%TO.P,C9,2*%
%TO.N,GND*%
X117000000Y-91500000D03*
D13*
%TO.P,C9,1*%
%TO.N,Net-(C9-Pad1)*%
X117000000Y-89000000D03*
%TD*%
D12*
%TO.P,C7,2*%
%TO.N,GND*%
X111000000Y-79500000D03*
D13*
%TO.P,C7,1*%
%TO.N,Net-(C1-Pad1)*%
X111000000Y-77000000D03*
%TD*%
D18*
%TO.P,C6,2*%
%TO.N,Net-(C2-Pad2)*%
X103000000Y-114000000D03*
D19*
%TO.P,C6,1*%
%TO.N,GND*%
X103000000Y-106500000D03*
%TD*%
D18*
%TO.P,C5,2*%
%TO.N,GND*%
X103000000Y-93500000D03*
D19*
%TO.P,C5,1*%
%TO.N,Net-(C1-Pad1)*%
X103000000Y-86000000D03*
%TD*%
D18*
%TO.P,C4,2*%
%TO.N,Net-(C2-Pad2)*%
X83000000Y-114000000D03*
D19*
%TO.P,C4,1*%
%TO.N,GND*%
X83000000Y-106500000D03*
%TD*%
D18*
%TO.P,C3,2*%
%TO.N,GND*%
X83000000Y-93500000D03*
D19*
%TO.P,C3,1*%
%TO.N,Net-(C1-Pad1)*%
X83000000Y-86000000D03*
%TD*%
D18*
%TO.P,C2,2*%
%TO.N,Net-(C2-Pad2)*%
X63080000Y-114000000D03*
D19*
%TO.P,C2,1*%
%TO.N,GND*%
X63080000Y-106500000D03*
%TD*%
D26*
%TO.N,Net-(C1-Pad1)*%
X63000000Y-86000000D02*
X83000000Y-86000000D01*
X83000000Y-86000000D02*
X103000000Y-86000000D01*
X117000000Y-68500000D02*
X117000000Y-76960000D01*
X58000000Y-80920000D02*
X63080000Y-86000000D01*
X58000000Y-77500000D02*
X58000000Y-80920000D01*
X108800000Y-77000000D02*
X111000000Y-77000000D01*
X103000000Y-82800000D02*
X108800000Y-77000000D01*
X103000000Y-86000000D02*
X103000000Y-82800000D01*
X116960000Y-77000000D02*
X117000000Y-76960000D01*
X111000000Y-77000000D02*
X116960000Y-77000000D01*
%TO.N,Net-(C2-Pad2)*%
X63000000Y-114000000D02*
X70660000Y-114000000D01*
X70660000Y-114000000D02*
X83000000Y-114000000D01*
X103000000Y-114000000D02*
X83000000Y-114000000D01*
X63080000Y-117080000D02*
X63080000Y-114000000D01*
X68160000Y-122160000D02*
X63080000Y-117080000D01*
X68160000Y-122500000D02*
X68160000Y-122160000D01*
X103000000Y-114000000D02*
X109500000Y-107500000D01*
X111000000Y-107000000D02*
X111500000Y-107500000D01*
X111000000Y-101000000D02*
X111000000Y-107000000D01*
X111500000Y-107500000D02*
X117000000Y-107500000D01*
X109500000Y-107500000D02*
X111500000Y-107500000D01*
X124859999Y-120800001D02*
X127160000Y-118500000D01*
X114699999Y-120560001D02*
X114939999Y-120800001D01*
X114699999Y-109248392D02*
X114699999Y-120560001D01*
X116448391Y-107500000D02*
X114699999Y-109248392D01*
X114939999Y-120800001D02*
X124859999Y-120800001D01*
X117000000Y-107500000D02*
X116448391Y-107500000D01*
%TO.N,Net-(C9-Pad1)*%
X127160000Y-74880000D02*
X120000000Y-82040000D01*
X120000000Y-82040000D02*
X117000000Y-82040000D01*
X127160000Y-68500000D02*
X127160000Y-74880000D01*
X117000000Y-82040000D02*
X117000000Y-89000000D01*
X121820000Y-89000000D02*
X124000000Y-91180000D01*
X117000000Y-89000000D02*
X121820000Y-89000000D01*
X134580000Y-80600000D02*
X124000000Y-91180000D01*
X140800000Y-80600000D02*
X134580000Y-80600000D01*
%TO.N,Net-(C10-Pad2)*%
X140900000Y-102517712D02*
X134160000Y-95777712D01*
X140900000Y-107900000D02*
X140900000Y-102517712D01*
X117799999Y-98799999D02*
X117000000Y-98000000D01*
X134160000Y-95777712D02*
X131137713Y-98799999D01*
X131137713Y-98799999D02*
X117799999Y-98799999D01*
X117000000Y-110059674D02*
X117000000Y-118500000D01*
X117019674Y-110040000D02*
X117000000Y-110059674D01*
X117571283Y-110040000D02*
X117019674Y-110040000D01*
X119200010Y-108411273D02*
X117571283Y-110040000D01*
X119200010Y-100200010D02*
X119200010Y-108411273D01*
X117000000Y-98000000D02*
X119200010Y-100200010D01*
%TO.N,Net-(D1-Pad2)*%
X54000000Y-115000000D02*
X54000000Y-76569999D01*
X58000000Y-119000000D02*
X54000000Y-115000000D01*
X58000000Y-122500000D02*
X58000000Y-119000000D01*
X57569999Y-73000000D02*
X74000000Y-73000000D01*
X54000000Y-76569999D02*
X57569999Y-73000000D01*
X72660000Y-73000000D02*
X68160000Y-77500000D01*
X74000000Y-73000000D02*
X72660000Y-73000000D01*
X74000000Y-73000000D02*
X86000000Y-73000000D01*
%TO.N,Net-(D7-Pad2)*%
X141000000Y-74740000D02*
X139540000Y-76200000D01*
X141000000Y-71240000D02*
X141000000Y-74740000D01*
%TO.N,Net-(D8-Pad1)*%
X141000000Y-115360000D02*
X139640000Y-114000000D01*
X141000000Y-119000000D02*
X141000000Y-115360000D01*
%TO.N,+12V*%
X147160000Y-80840000D02*
X146000000Y-82000000D01*
X147160000Y-76200000D02*
X147160000Y-80840000D01*
X145900000Y-89350000D02*
X145250000Y-90000000D01*
X145900000Y-82200000D02*
X145900000Y-89350000D01*
%TO.N,-12V*%
X145250000Y-108750000D02*
X146000000Y-109500000D01*
X145250000Y-100000000D02*
X145250000Y-108750000D01*
X146000000Y-112740000D02*
X147260000Y-114000000D01*
X146000000Y-109500000D02*
X146000000Y-112740000D01*
%TD*%
D27*
%TO.N,GND*%
X149340001Y-124340000D02*
X50660000Y-124340000D01*
X50660000Y-121779872D01*
X50765000Y-121779872D01*
X50765000Y-122220128D01*
X50850890Y-122651925D01*
X51019369Y-123058669D01*
X51263962Y-123424729D01*
X51575271Y-123736038D01*
X51941331Y-123980631D01*
X52348075Y-124149110D01*
X52779872Y-124235000D01*
X53220128Y-124235000D01*
X53651925Y-124149110D01*
X54058669Y-123980631D01*
X54424729Y-123736038D01*
X54736038Y-123424729D01*
X54980631Y-123058669D01*
X55149110Y-122651925D01*
X55235000Y-122220128D01*
X55235000Y-121779872D01*
X55149110Y-121348075D01*
X54980631Y-120941331D01*
X54736038Y-120575271D01*
X54424729Y-120263962D01*
X54058669Y-120019369D01*
X53651925Y-119850890D01*
X53220128Y-119765000D01*
X52779872Y-119765000D01*
X52348075Y-119850890D01*
X51941331Y-120019369D01*
X51575271Y-120263962D01*
X51263962Y-120575271D01*
X51019369Y-120941331D01*
X50850890Y-121348075D01*
X50765000Y-121779872D01*
X50660000Y-121779872D01*
X50660000Y-76569999D01*
X52357089Y-76569999D01*
X52365001Y-76650328D01*
X52365000Y-114919681D01*
X52357089Y-115000000D01*
X52365000Y-115080319D01*
X52365000Y-115080321D01*
X52388657Y-115320515D01*
X52482148Y-115628714D01*
X52633969Y-115912751D01*
X52838286Y-116161714D01*
X52900687Y-116212925D01*
X56365001Y-119677240D01*
X56365000Y-121053855D01*
X56310498Y-121155820D01*
X56274188Y-121275518D01*
X56261928Y-121400000D01*
X56261928Y-123600000D01*
X56274188Y-123724482D01*
X56310498Y-123844180D01*
X56369463Y-123954494D01*
X56448815Y-124051185D01*
X56545506Y-124130537D01*
X56655820Y-124189502D01*
X56775518Y-124225812D01*
X56900000Y-124238072D01*
X59100000Y-124238072D01*
X59224482Y-124225812D01*
X59344180Y-124189502D01*
X59454494Y-124130537D01*
X59551185Y-124051185D01*
X59630537Y-123954494D01*
X59689502Y-123844180D01*
X59725812Y-123724482D01*
X59738072Y-123600000D01*
X59738072Y-121400000D01*
X59725812Y-121275518D01*
X59689502Y-121155820D01*
X59635000Y-121053856D01*
X59635000Y-119080319D01*
X59642911Y-118999999D01*
X59634745Y-118917090D01*
X59611343Y-118679484D01*
X59517852Y-118371285D01*
X59366031Y-118087248D01*
X59161714Y-117838286D01*
X59099319Y-117787080D01*
X55635000Y-114322762D01*
X55635000Y-113819268D01*
X61245000Y-113819268D01*
X61245000Y-114180732D01*
X61315518Y-114535250D01*
X61445001Y-114847849D01*
X61445000Y-116999680D01*
X61437089Y-117080000D01*
X61445000Y-117160319D01*
X61445000Y-117160321D01*
X61468657Y-117400515D01*
X61562148Y-117708714D01*
X61713969Y-117992751D01*
X61918286Y-118241714D01*
X61980687Y-118292925D01*
X66441476Y-122753715D01*
X66491675Y-123006081D01*
X66622463Y-123321831D01*
X66812337Y-123605998D01*
X67054002Y-123847663D01*
X67338169Y-124037537D01*
X67653919Y-124168325D01*
X67989117Y-124235000D01*
X68330883Y-124235000D01*
X68666081Y-124168325D01*
X68981831Y-124037537D01*
X69265998Y-123847663D01*
X69507663Y-123605998D01*
X69697537Y-123321831D01*
X69828325Y-123006081D01*
X69895000Y-122670883D01*
X69895000Y-122604080D01*
X140115525Y-122604080D01*
X140199208Y-122858261D01*
X140471775Y-122989158D01*
X140764642Y-123064365D01*
X141066553Y-123080991D01*
X141365907Y-123038397D01*
X141651199Y-122938222D01*
X141800792Y-122858261D01*
X141884475Y-122604080D01*
X141000000Y-121719605D01*
X140115525Y-122604080D01*
X69895000Y-122604080D01*
X69895000Y-122329117D01*
X69828325Y-121993919D01*
X69773523Y-121861614D01*
X69771343Y-121839485D01*
X69700684Y-121606553D01*
X69677852Y-121531285D01*
X69579924Y-121348075D01*
X69526031Y-121247248D01*
X69321714Y-120998286D01*
X69259319Y-120947080D01*
X64715000Y-116402762D01*
X64715000Y-115635000D01*
X82152152Y-115635000D01*
X82464750Y-115764482D01*
X82819268Y-115835000D01*
X83180732Y-115835000D01*
X83535250Y-115764482D01*
X83847848Y-115635000D01*
X102152152Y-115635000D01*
X102464750Y-115764482D01*
X102819268Y-115835000D01*
X103180732Y-115835000D01*
X103535250Y-115764482D01*
X103869199Y-115626156D01*
X104169744Y-115425338D01*
X104425338Y-115169744D01*
X104626156Y-114869199D01*
X104755639Y-114556599D01*
X110177239Y-109135000D01*
X111419678Y-109135000D01*
X111500000Y-109142911D01*
X111580322Y-109135000D01*
X113068256Y-109135000D01*
X113057088Y-109248392D01*
X113064999Y-109328712D01*
X113065000Y-120479672D01*
X113057088Y-120560001D01*
X113088657Y-120880517D01*
X113182147Y-121188715D01*
X113267327Y-121348075D01*
X113333969Y-121472753D01*
X113538286Y-121721715D01*
X113600681Y-121772921D01*
X113727074Y-121899314D01*
X113778285Y-121961715D01*
X114027247Y-122166032D01*
X114311284Y-122317853D01*
X114619483Y-122411344D01*
X114859677Y-122435001D01*
X114859679Y-122435001D01*
X114939998Y-122442912D01*
X115020318Y-122435001D01*
X124779680Y-122435001D01*
X124859999Y-122442912D01*
X124940318Y-122435001D01*
X124940321Y-122435001D01*
X125180515Y-122411344D01*
X125488714Y-122317853D01*
X125772751Y-122166032D01*
X126021713Y-121961715D01*
X126072923Y-121899315D01*
X127901378Y-120070862D01*
X127981831Y-120037537D01*
X128265998Y-119847663D01*
X128507663Y-119605998D01*
X128697537Y-119321831D01*
X128828325Y-119006081D01*
X128895000Y-118670883D01*
X128895000Y-118329117D01*
X128828325Y-117993919D01*
X128697537Y-117678169D01*
X128507663Y-117394002D01*
X128265998Y-117152337D01*
X127981831Y-116962463D01*
X127666081Y-116831675D01*
X127330883Y-116765000D01*
X126989117Y-116765000D01*
X126653919Y-116831675D01*
X126338169Y-116962463D01*
X126054002Y-117152337D01*
X125812337Y-117394002D01*
X125622463Y-117678169D01*
X125589138Y-117758622D01*
X124182761Y-119165001D01*
X118738072Y-119165001D01*
X118738072Y-117400000D01*
X118725812Y-117275518D01*
X118689502Y-117155820D01*
X118635000Y-117053856D01*
X118635000Y-114000000D01*
X137997089Y-114000000D01*
X138028658Y-114320516D01*
X138122148Y-114628714D01*
X138273970Y-114912752D01*
X138427085Y-115099323D01*
X139365001Y-116037239D01*
X139365000Y-119080321D01*
X139388657Y-119320515D01*
X139461928Y-119562057D01*
X139461928Y-119900000D01*
X139474188Y-120024482D01*
X139510498Y-120144180D01*
X139569463Y-120254494D01*
X139648815Y-120351185D01*
X139745506Y-120430537D01*
X139855820Y-120489502D01*
X139866735Y-120492813D01*
X139819970Y-120539578D01*
X139935918Y-120655526D01*
X139681739Y-120739208D01*
X139550842Y-121011775D01*
X139475635Y-121304642D01*
X139459009Y-121606553D01*
X139501603Y-121905907D01*
X139601778Y-122191199D01*
X139681739Y-122340792D01*
X139935920Y-122424475D01*
X140820395Y-121540000D01*
X140806253Y-121525858D01*
X140985858Y-121346253D01*
X141000000Y-121360395D01*
X141014143Y-121346253D01*
X141193748Y-121525858D01*
X141179605Y-121540000D01*
X142064080Y-122424475D01*
X142318261Y-122340792D01*
X142449158Y-122068225D01*
X142523205Y-121779872D01*
X144765000Y-121779872D01*
X144765000Y-122220128D01*
X144850890Y-122651925D01*
X145019369Y-123058669D01*
X145263962Y-123424729D01*
X145575271Y-123736038D01*
X145941331Y-123980631D01*
X146348075Y-124149110D01*
X146779872Y-124235000D01*
X147220128Y-124235000D01*
X147651925Y-124149110D01*
X148058669Y-123980631D01*
X148424729Y-123736038D01*
X148736038Y-123424729D01*
X148980631Y-123058669D01*
X149149110Y-122651925D01*
X149235000Y-122220128D01*
X149235000Y-121779872D01*
X149149110Y-121348075D01*
X148980631Y-120941331D01*
X148736038Y-120575271D01*
X148424729Y-120263962D01*
X148058669Y-120019369D01*
X147651925Y-119850890D01*
X147220128Y-119765000D01*
X146779872Y-119765000D01*
X146348075Y-119850890D01*
X145941331Y-120019369D01*
X145575271Y-120263962D01*
X145263962Y-120575271D01*
X145019369Y-120941331D01*
X144850890Y-121348075D01*
X144765000Y-121779872D01*
X142523205Y-121779872D01*
X142524365Y-121775358D01*
X142540991Y-121473447D01*
X142498397Y-121174093D01*
X142398222Y-120888801D01*
X142318261Y-120739208D01*
X142064082Y-120655526D01*
X142180030Y-120539578D01*
X142133265Y-120492813D01*
X142144180Y-120489502D01*
X142254494Y-120430537D01*
X142351185Y-120351185D01*
X142430537Y-120254494D01*
X142489502Y-120144180D01*
X142525812Y-120024482D01*
X142538072Y-119900000D01*
X142538072Y-119562058D01*
X142611343Y-119320516D01*
X142635000Y-119080322D01*
X142635000Y-115440319D01*
X142642911Y-115359999D01*
X142624172Y-115169744D01*
X142611343Y-115039484D01*
X142517852Y-114731285D01*
X142366031Y-114447248D01*
X142161714Y-114198286D01*
X142099318Y-114147079D01*
X140739323Y-112787085D01*
X140552752Y-112633970D01*
X140268714Y-112482148D01*
X139960516Y-112388658D01*
X139640000Y-112357089D01*
X139319484Y-112388658D01*
X139011286Y-112482148D01*
X138727248Y-112633970D01*
X138478287Y-112838287D01*
X138273970Y-113087248D01*
X138122148Y-113371286D01*
X138028658Y-113679484D01*
X137997089Y-114000000D01*
X118635000Y-114000000D01*
X118635000Y-111282138D01*
X118732997Y-111201714D01*
X118784208Y-111139314D01*
X120299328Y-109624194D01*
X120361724Y-109572987D01*
X120566041Y-109324025D01*
X120717862Y-109039988D01*
X120747988Y-108940677D01*
X120811353Y-108731790D01*
X120842921Y-108411273D01*
X120835010Y-108330951D01*
X120835010Y-100434999D01*
X131057394Y-100434999D01*
X131137713Y-100442910D01*
X131218032Y-100434999D01*
X131218035Y-100434999D01*
X131458229Y-100411342D01*
X131766428Y-100317851D01*
X132050465Y-100166030D01*
X132299427Y-99961713D01*
X132350638Y-99899312D01*
X134160000Y-98089950D01*
X139265001Y-103194952D01*
X139265000Y-107980321D01*
X139288657Y-108220515D01*
X139382148Y-108528714D01*
X139533969Y-108812751D01*
X139738286Y-109061714D01*
X139987248Y-109266031D01*
X140271285Y-109417852D01*
X140579484Y-109511343D01*
X140900000Y-109542911D01*
X141220515Y-109511343D01*
X141528714Y-109417852D01*
X141812751Y-109266031D01*
X142061714Y-109061714D01*
X142266031Y-108812752D01*
X142417852Y-108528715D01*
X142511343Y-108220516D01*
X142535000Y-107980322D01*
X142535000Y-102598031D01*
X142542911Y-102517711D01*
X142535000Y-102437390D01*
X142511343Y-102197196D01*
X142417852Y-101888997D01*
X142266031Y-101604960D01*
X142061714Y-101355998D01*
X141999319Y-101304792D01*
X140508871Y-99814344D01*
X143365000Y-99814344D01*
X143365000Y-100185656D01*
X143437439Y-100549834D01*
X143579534Y-100892882D01*
X143615000Y-100945961D01*
X143615001Y-108669671D01*
X143607089Y-108750000D01*
X143638658Y-109070516D01*
X143732148Y-109378714D01*
X143863836Y-109625084D01*
X143883970Y-109662752D01*
X144088287Y-109911714D01*
X144150682Y-109962920D01*
X144365000Y-110177238D01*
X144365001Y-112659671D01*
X144357089Y-112740000D01*
X144388658Y-113060516D01*
X144482148Y-113368714D01*
X144542780Y-113482148D01*
X144633970Y-113652752D01*
X144838287Y-113901714D01*
X144900682Y-113952920D01*
X146160676Y-115212915D01*
X146347247Y-115366030D01*
X146631285Y-115517852D01*
X146939483Y-115611342D01*
X147259999Y-115642911D01*
X147580516Y-115611342D01*
X147888714Y-115517852D01*
X148172752Y-115366030D01*
X148421713Y-115161713D01*
X148626030Y-114912752D01*
X148777852Y-114628714D01*
X148871342Y-114320516D01*
X148902911Y-113999999D01*
X148871342Y-113679483D01*
X148777852Y-113371285D01*
X148626030Y-113087247D01*
X148472915Y-112900676D01*
X147635000Y-112062762D01*
X147635000Y-109580319D01*
X147642911Y-109499999D01*
X147634173Y-109411285D01*
X147611343Y-109179484D01*
X147517852Y-108871285D01*
X147366031Y-108587248D01*
X147161714Y-108338286D01*
X147099314Y-108287076D01*
X146885000Y-108072762D01*
X146885000Y-100945961D01*
X146920466Y-100892882D01*
X147062561Y-100549834D01*
X147135000Y-100185656D01*
X147135000Y-99814344D01*
X147062561Y-99450166D01*
X146920466Y-99107118D01*
X146714175Y-98798382D01*
X146451618Y-98535825D01*
X146142882Y-98329534D01*
X145799834Y-98187439D01*
X145435656Y-98115000D01*
X145064344Y-98115000D01*
X144700166Y-98187439D01*
X144357118Y-98329534D01*
X144048382Y-98535825D01*
X143785825Y-98798382D01*
X143579534Y-99107118D01*
X143437439Y-99450166D01*
X143365000Y-99814344D01*
X140508871Y-99814344D01*
X137008132Y-96313605D01*
X144116000Y-96313605D01*
X144241914Y-96603577D01*
X144574126Y-96769433D01*
X144932312Y-96867290D01*
X145302706Y-96893389D01*
X145671075Y-96846725D01*
X146023262Y-96729094D01*
X146258086Y-96603577D01*
X146384000Y-96313605D01*
X145250000Y-95179605D01*
X144116000Y-96313605D01*
X137008132Y-96313605D01*
X135747233Y-95052706D01*
X143356611Y-95052706D01*
X143403275Y-95421075D01*
X143520906Y-95773262D01*
X143646423Y-96008086D01*
X143936395Y-96134000D01*
X145070395Y-95000000D01*
X145429605Y-95000000D01*
X146563605Y-96134000D01*
X146853577Y-96008086D01*
X147019433Y-95675874D01*
X147117290Y-95317688D01*
X147143389Y-94947294D01*
X147096725Y-94578925D01*
X146979094Y-94226738D01*
X146853577Y-93991914D01*
X146563605Y-93866000D01*
X145429605Y-95000000D01*
X145070395Y-95000000D01*
X143936395Y-93866000D01*
X143646423Y-93991914D01*
X143480567Y-94324126D01*
X143382710Y-94682312D01*
X143356611Y-95052706D01*
X135747233Y-95052706D01*
X135730863Y-95036337D01*
X135697537Y-94955881D01*
X135507663Y-94671714D01*
X135265998Y-94430049D01*
X134981831Y-94240175D01*
X134666081Y-94109387D01*
X134330883Y-94042712D01*
X133989117Y-94042712D01*
X133653919Y-94109387D01*
X133338169Y-94240175D01*
X133054002Y-94430049D01*
X132812337Y-94671714D01*
X132622463Y-94955881D01*
X132589138Y-95036336D01*
X130460475Y-97164999D01*
X125666460Y-97164999D01*
X125689502Y-97121892D01*
X125725812Y-97002194D01*
X125738072Y-96877712D01*
X125735000Y-96063462D01*
X125576250Y-95904712D01*
X124127000Y-95904712D01*
X124127000Y-95924712D01*
X123873000Y-95924712D01*
X123873000Y-95904712D01*
X122423750Y-95904712D01*
X122265000Y-96063462D01*
X122261928Y-96877712D01*
X122274188Y-97002194D01*
X122310498Y-97121892D01*
X122333540Y-97164999D01*
X118477237Y-97164999D01*
X118146857Y-96834619D01*
X118154494Y-96830537D01*
X118251185Y-96751185D01*
X118330537Y-96654494D01*
X118389502Y-96544180D01*
X118425812Y-96424482D01*
X118438072Y-96300000D01*
X118435000Y-95785750D01*
X118276250Y-95627000D01*
X117127000Y-95627000D01*
X117127000Y-95647000D01*
X116873000Y-95647000D01*
X116873000Y-95627000D01*
X115723750Y-95627000D01*
X115565000Y-95785750D01*
X115561928Y-96300000D01*
X115574188Y-96424482D01*
X115610498Y-96544180D01*
X115669463Y-96654494D01*
X115748815Y-96751185D01*
X115845506Y-96830537D01*
X115846853Y-96831257D01*
X115838287Y-96838287D01*
X115633970Y-97087248D01*
X115482148Y-97371286D01*
X115388658Y-97679484D01*
X115357089Y-98000000D01*
X115388658Y-98320516D01*
X115482148Y-98628714D01*
X115633970Y-98912752D01*
X115787085Y-99099323D01*
X116587076Y-99899314D01*
X116638285Y-99961713D01*
X116700684Y-100012922D01*
X117565010Y-100877249D01*
X117565010Y-103371299D01*
X117285750Y-103372500D01*
X117127000Y-103531250D01*
X117127000Y-104833000D01*
X117147000Y-104833000D01*
X117147000Y-105087000D01*
X117127000Y-105087000D01*
X117127000Y-105107000D01*
X116873000Y-105107000D01*
X116873000Y-105087000D01*
X115523750Y-105087000D01*
X115365000Y-105245750D01*
X115362147Y-105865000D01*
X112635000Y-105865000D01*
X112635000Y-104007500D01*
X115361928Y-104007500D01*
X115365000Y-104674250D01*
X115523750Y-104833000D01*
X116873000Y-104833000D01*
X116873000Y-103531250D01*
X116714250Y-103372500D01*
X116000000Y-103369428D01*
X115875518Y-103381688D01*
X115755820Y-103417998D01*
X115645506Y-103476963D01*
X115548815Y-103556315D01*
X115469463Y-103653006D01*
X115410498Y-103763320D01*
X115374188Y-103883018D01*
X115361928Y-104007500D01*
X112635000Y-104007500D01*
X112635000Y-100919678D01*
X112611343Y-100679484D01*
X112517852Y-100371285D01*
X112366031Y-100087248D01*
X112161714Y-99838286D01*
X112153148Y-99831256D01*
X112154494Y-99830537D01*
X112251185Y-99751185D01*
X112330537Y-99654494D01*
X112389502Y-99544180D01*
X112425812Y-99424482D01*
X112438072Y-99300000D01*
X112435000Y-98785750D01*
X112276250Y-98627000D01*
X111127000Y-98627000D01*
X111127000Y-98647000D01*
X110873000Y-98647000D01*
X110873000Y-98627000D01*
X109723750Y-98627000D01*
X109565000Y-98785750D01*
X109561928Y-99300000D01*
X109574188Y-99424482D01*
X109610498Y-99544180D01*
X109669463Y-99654494D01*
X109748815Y-99751185D01*
X109845506Y-99830537D01*
X109846852Y-99831256D01*
X109838286Y-99838286D01*
X109633969Y-100087249D01*
X109482148Y-100371286D01*
X109388657Y-100679485D01*
X109365000Y-100919679D01*
X109365001Y-105870385D01*
X109179484Y-105888657D01*
X108871285Y-105982148D01*
X108587248Y-106133969D01*
X108338286Y-106338286D01*
X108287080Y-106400681D01*
X102443401Y-112244361D01*
X102152152Y-112365000D01*
X83847848Y-112365000D01*
X83535250Y-112235518D01*
X83180732Y-112165000D01*
X82819268Y-112165000D01*
X82464750Y-112235518D01*
X82152152Y-112365000D01*
X63927848Y-112365000D01*
X63615250Y-112235518D01*
X63260732Y-112165000D01*
X62899268Y-112165000D01*
X62544750Y-112235518D01*
X62210801Y-112373844D01*
X61910256Y-112574662D01*
X61654662Y-112830256D01*
X61453844Y-113130801D01*
X61315518Y-113464750D01*
X61245000Y-113819268D01*
X55635000Y-113819268D01*
X55635000Y-107700000D01*
X61241928Y-107700000D01*
X61254188Y-107824482D01*
X61290498Y-107944180D01*
X61349463Y-108054494D01*
X61428815Y-108151185D01*
X61525506Y-108230537D01*
X61635820Y-108289502D01*
X61755518Y-108325812D01*
X61880000Y-108338072D01*
X62794250Y-108335000D01*
X62953000Y-108176250D01*
X62953000Y-106627000D01*
X63207000Y-106627000D01*
X63207000Y-108176250D01*
X63365750Y-108335000D01*
X64280000Y-108338072D01*
X64404482Y-108325812D01*
X64524180Y-108289502D01*
X64634494Y-108230537D01*
X64731185Y-108151185D01*
X64810537Y-108054494D01*
X64869502Y-107944180D01*
X64905812Y-107824482D01*
X64918072Y-107700000D01*
X81161928Y-107700000D01*
X81174188Y-107824482D01*
X81210498Y-107944180D01*
X81269463Y-108054494D01*
X81348815Y-108151185D01*
X81445506Y-108230537D01*
X81555820Y-108289502D01*
X81675518Y-108325812D01*
X81800000Y-108338072D01*
X82714250Y-108335000D01*
X82873000Y-108176250D01*
X82873000Y-106627000D01*
X83127000Y-106627000D01*
X83127000Y-108176250D01*
X83285750Y-108335000D01*
X84200000Y-108338072D01*
X84324482Y-108325812D01*
X84444180Y-108289502D01*
X84554494Y-108230537D01*
X84651185Y-108151185D01*
X84730537Y-108054494D01*
X84789502Y-107944180D01*
X84825812Y-107824482D01*
X84838072Y-107700000D01*
X101161928Y-107700000D01*
X101174188Y-107824482D01*
X101210498Y-107944180D01*
X101269463Y-108054494D01*
X101348815Y-108151185D01*
X101445506Y-108230537D01*
X101555820Y-108289502D01*
X101675518Y-108325812D01*
X101800000Y-108338072D01*
X102714250Y-108335000D01*
X102873000Y-108176250D01*
X102873000Y-106627000D01*
X103127000Y-106627000D01*
X103127000Y-108176250D01*
X103285750Y-108335000D01*
X104200000Y-108338072D01*
X104324482Y-108325812D01*
X104444180Y-108289502D01*
X104554494Y-108230537D01*
X104651185Y-108151185D01*
X104730537Y-108054494D01*
X104789502Y-107944180D01*
X104825812Y-107824482D01*
X104838072Y-107700000D01*
X104835000Y-106785750D01*
X104676250Y-106627000D01*
X103127000Y-106627000D01*
X102873000Y-106627000D01*
X101323750Y-106627000D01*
X101165000Y-106785750D01*
X101161928Y-107700000D01*
X84838072Y-107700000D01*
X84835000Y-106785750D01*
X84676250Y-106627000D01*
X83127000Y-106627000D01*
X82873000Y-106627000D01*
X81323750Y-106627000D01*
X81165000Y-106785750D01*
X81161928Y-107700000D01*
X64918072Y-107700000D01*
X64915000Y-106785750D01*
X64756250Y-106627000D01*
X63207000Y-106627000D01*
X62953000Y-106627000D01*
X61403750Y-106627000D01*
X61245000Y-106785750D01*
X61241928Y-107700000D01*
X55635000Y-107700000D01*
X55635000Y-105300000D01*
X61241928Y-105300000D01*
X61245000Y-106214250D01*
X61403750Y-106373000D01*
X62953000Y-106373000D01*
X62953000Y-104823750D01*
X63207000Y-104823750D01*
X63207000Y-106373000D01*
X64756250Y-106373000D01*
X64915000Y-106214250D01*
X64918072Y-105300000D01*
X81161928Y-105300000D01*
X81165000Y-106214250D01*
X81323750Y-106373000D01*
X82873000Y-106373000D01*
X82873000Y-104823750D01*
X83127000Y-104823750D01*
X83127000Y-106373000D01*
X84676250Y-106373000D01*
X84835000Y-106214250D01*
X84838072Y-105300000D01*
X101161928Y-105300000D01*
X101165000Y-106214250D01*
X101323750Y-106373000D01*
X102873000Y-106373000D01*
X102873000Y-104823750D01*
X103127000Y-104823750D01*
X103127000Y-106373000D01*
X104676250Y-106373000D01*
X104835000Y-106214250D01*
X104838072Y-105300000D01*
X104825812Y-105175518D01*
X104789502Y-105055820D01*
X104730537Y-104945506D01*
X104651185Y-104848815D01*
X104554494Y-104769463D01*
X104444180Y-104710498D01*
X104324482Y-104674188D01*
X104200000Y-104661928D01*
X103285750Y-104665000D01*
X103127000Y-104823750D01*
X102873000Y-104823750D01*
X102714250Y-104665000D01*
X101800000Y-104661928D01*
X101675518Y-104674188D01*
X101555820Y-104710498D01*
X101445506Y-104769463D01*
X101348815Y-104848815D01*
X101269463Y-104945506D01*
X101210498Y-105055820D01*
X101174188Y-105175518D01*
X101161928Y-105300000D01*
X84838072Y-105300000D01*
X84825812Y-105175518D01*
X84789502Y-105055820D01*
X84730537Y-104945506D01*
X84651185Y-104848815D01*
X84554494Y-104769463D01*
X84444180Y-104710498D01*
X84324482Y-104674188D01*
X84200000Y-104661928D01*
X83285750Y-104665000D01*
X83127000Y-104823750D01*
X82873000Y-104823750D01*
X82714250Y-104665000D01*
X81800000Y-104661928D01*
X81675518Y-104674188D01*
X81555820Y-104710498D01*
X81445506Y-104769463D01*
X81348815Y-104848815D01*
X81269463Y-104945506D01*
X81210498Y-105055820D01*
X81174188Y-105175518D01*
X81161928Y-105300000D01*
X64918072Y-105300000D01*
X64905812Y-105175518D01*
X64869502Y-105055820D01*
X64810537Y-104945506D01*
X64731185Y-104848815D01*
X64634494Y-104769463D01*
X64524180Y-104710498D01*
X64404482Y-104674188D01*
X64280000Y-104661928D01*
X63365750Y-104665000D01*
X63207000Y-104823750D01*
X62953000Y-104823750D01*
X62794250Y-104665000D01*
X61880000Y-104661928D01*
X61755518Y-104674188D01*
X61635820Y-104710498D01*
X61525506Y-104769463D01*
X61428815Y-104848815D01*
X61349463Y-104945506D01*
X61290498Y-105055820D01*
X61254188Y-105175518D01*
X61241928Y-105300000D01*
X55635000Y-105300000D01*
X55635000Y-97700000D01*
X109561928Y-97700000D01*
X109565000Y-98214250D01*
X109723750Y-98373000D01*
X110873000Y-98373000D01*
X110873000Y-97223750D01*
X111127000Y-97223750D01*
X111127000Y-98373000D01*
X112276250Y-98373000D01*
X112435000Y-98214250D01*
X112438072Y-97700000D01*
X112425812Y-97575518D01*
X112389502Y-97455820D01*
X112330537Y-97345506D01*
X112251185Y-97248815D01*
X112154494Y-97169463D01*
X112044180Y-97110498D01*
X111924482Y-97074188D01*
X111800000Y-97061928D01*
X111285750Y-97065000D01*
X111127000Y-97223750D01*
X110873000Y-97223750D01*
X110714250Y-97065000D01*
X110200000Y-97061928D01*
X110075518Y-97074188D01*
X109955820Y-97110498D01*
X109845506Y-97169463D01*
X109748815Y-97248815D01*
X109669463Y-97345506D01*
X109610498Y-97455820D01*
X109574188Y-97575518D01*
X109561928Y-97700000D01*
X55635000Y-97700000D01*
X55635000Y-94777980D01*
X61981626Y-94777980D01*
X62101514Y-95062836D01*
X62425210Y-95223699D01*
X62774069Y-95318322D01*
X63134684Y-95343067D01*
X63493198Y-95296985D01*
X63835833Y-95181846D01*
X64058486Y-95062836D01*
X64178374Y-94777980D01*
X81901626Y-94777980D01*
X82021514Y-95062836D01*
X82345210Y-95223699D01*
X82694069Y-95318322D01*
X83054684Y-95343067D01*
X83413198Y-95296985D01*
X83755833Y-95181846D01*
X83978486Y-95062836D01*
X84098374Y-94777980D01*
X101901626Y-94777980D01*
X102021514Y-95062836D01*
X102345210Y-95223699D01*
X102694069Y-95318322D01*
X103054684Y-95343067D01*
X103413198Y-95296985D01*
X103755833Y-95181846D01*
X103978486Y-95062836D01*
X104098374Y-94777980D01*
X104020395Y-94700000D01*
X115561928Y-94700000D01*
X115565000Y-95214250D01*
X115723750Y-95373000D01*
X116873000Y-95373000D01*
X116873000Y-94223750D01*
X117127000Y-94223750D01*
X117127000Y-95373000D01*
X118276250Y-95373000D01*
X118435000Y-95214250D01*
X118438072Y-94700000D01*
X118435877Y-94677712D01*
X122261928Y-94677712D01*
X122265000Y-95491962D01*
X122423750Y-95650712D01*
X123873000Y-95650712D01*
X123873000Y-94201462D01*
X124127000Y-94201462D01*
X124127000Y-95650712D01*
X125576250Y-95650712D01*
X125735000Y-95491962D01*
X125738072Y-94677712D01*
X125725812Y-94553230D01*
X125689502Y-94433532D01*
X125630537Y-94323218D01*
X125551185Y-94226527D01*
X125454494Y-94147175D01*
X125344180Y-94088210D01*
X125224482Y-94051900D01*
X125100000Y-94039640D01*
X124285750Y-94042712D01*
X124127000Y-94201462D01*
X123873000Y-94201462D01*
X123714250Y-94042712D01*
X122900000Y-94039640D01*
X122775518Y-94051900D01*
X122655820Y-94088210D01*
X122545506Y-94147175D01*
X122448815Y-94226527D01*
X122369463Y-94323218D01*
X122310498Y-94433532D01*
X122274188Y-94553230D01*
X122261928Y-94677712D01*
X118435877Y-94677712D01*
X118425812Y-94575518D01*
X118389502Y-94455820D01*
X118330537Y-94345506D01*
X118251185Y-94248815D01*
X118154494Y-94169463D01*
X118044180Y-94110498D01*
X117924482Y-94074188D01*
X117800000Y-94061928D01*
X117285750Y-94065000D01*
X117127000Y-94223750D01*
X116873000Y-94223750D01*
X116714250Y-94065000D01*
X116200000Y-94061928D01*
X116075518Y-94074188D01*
X115955820Y-94110498D01*
X115845506Y-94169463D01*
X115748815Y-94248815D01*
X115669463Y-94345506D01*
X115610498Y-94455820D01*
X115574188Y-94575518D01*
X115561928Y-94700000D01*
X104020395Y-94700000D01*
X103000000Y-93679605D01*
X101901626Y-94777980D01*
X84098374Y-94777980D01*
X83000000Y-93679605D01*
X81901626Y-94777980D01*
X64178374Y-94777980D01*
X63080000Y-93679605D01*
X61981626Y-94777980D01*
X55635000Y-94777980D01*
X55635000Y-93554684D01*
X61236933Y-93554684D01*
X61283015Y-93913198D01*
X61398154Y-94255833D01*
X61517164Y-94478486D01*
X61802020Y-94598374D01*
X62900395Y-93500000D01*
X63259605Y-93500000D01*
X64357980Y-94598374D01*
X64642836Y-94478486D01*
X64803699Y-94154790D01*
X64898322Y-93805931D01*
X64915562Y-93554684D01*
X81156933Y-93554684D01*
X81203015Y-93913198D01*
X81318154Y-94255833D01*
X81437164Y-94478486D01*
X81722020Y-94598374D01*
X82820395Y-93500000D01*
X83179605Y-93500000D01*
X84277980Y-94598374D01*
X84562836Y-94478486D01*
X84723699Y-94154790D01*
X84818322Y-93805931D01*
X84835562Y-93554684D01*
X101156933Y-93554684D01*
X101203015Y-93913198D01*
X101318154Y-94255833D01*
X101437164Y-94478486D01*
X101722020Y-94598374D01*
X102820395Y-93500000D01*
X103179605Y-93500000D01*
X104277980Y-94598374D01*
X104562836Y-94478486D01*
X104723699Y-94154790D01*
X104818322Y-93805931D01*
X104826524Y-93686395D01*
X144116000Y-93686395D01*
X145250000Y-94820395D01*
X146384000Y-93686395D01*
X146258086Y-93396423D01*
X145925874Y-93230567D01*
X145567688Y-93132710D01*
X145197294Y-93106611D01*
X144828925Y-93153275D01*
X144476738Y-93270906D01*
X144241914Y-93396423D01*
X144116000Y-93686395D01*
X104826524Y-93686395D01*
X104843067Y-93445316D01*
X104796985Y-93086802D01*
X104681846Y-92744167D01*
X104562836Y-92521514D01*
X104494379Y-92492702D01*
X116186903Y-92492702D01*
X116258486Y-92736671D01*
X116513996Y-92857571D01*
X116788184Y-92926300D01*
X117070512Y-92940217D01*
X117350130Y-92898787D01*
X117616292Y-92803603D01*
X117741514Y-92736671D01*
X117813097Y-92492702D01*
X117000000Y-91679605D01*
X116186903Y-92492702D01*
X104494379Y-92492702D01*
X104277980Y-92401626D01*
X103179605Y-93500000D01*
X102820395Y-93500000D01*
X101722020Y-92401626D01*
X101437164Y-92521514D01*
X101276301Y-92845210D01*
X101181678Y-93194069D01*
X101156933Y-93554684D01*
X84835562Y-93554684D01*
X84843067Y-93445316D01*
X84796985Y-93086802D01*
X84681846Y-92744167D01*
X84562836Y-92521514D01*
X84277980Y-92401626D01*
X83179605Y-93500000D01*
X82820395Y-93500000D01*
X81722020Y-92401626D01*
X81437164Y-92521514D01*
X81276301Y-92845210D01*
X81181678Y-93194069D01*
X81156933Y-93554684D01*
X64915562Y-93554684D01*
X64923067Y-93445316D01*
X64876985Y-93086802D01*
X64761846Y-92744167D01*
X64642836Y-92521514D01*
X64357980Y-92401626D01*
X63259605Y-93500000D01*
X62900395Y-93500000D01*
X61802020Y-92401626D01*
X61517164Y-92521514D01*
X61356301Y-92845210D01*
X61261678Y-93194069D01*
X61236933Y-93554684D01*
X55635000Y-93554684D01*
X55635000Y-92222020D01*
X61981626Y-92222020D01*
X63080000Y-93320395D01*
X64178374Y-92222020D01*
X81901626Y-92222020D01*
X83000000Y-93320395D01*
X84098374Y-92222020D01*
X101901626Y-92222020D01*
X103000000Y-93320395D01*
X104098374Y-92222020D01*
X103978486Y-91937164D01*
X103654790Y-91776301D01*
X103305931Y-91681678D01*
X102945316Y-91656933D01*
X102586802Y-91703015D01*
X102244167Y-91818154D01*
X102021514Y-91937164D01*
X101901626Y-92222020D01*
X84098374Y-92222020D01*
X83978486Y-91937164D01*
X83654790Y-91776301D01*
X83305931Y-91681678D01*
X82945316Y-91656933D01*
X82586802Y-91703015D01*
X82244167Y-91818154D01*
X82021514Y-91937164D01*
X81901626Y-92222020D01*
X64178374Y-92222020D01*
X64058486Y-91937164D01*
X63734790Y-91776301D01*
X63385931Y-91681678D01*
X63025316Y-91656933D01*
X62666802Y-91703015D01*
X62324167Y-91818154D01*
X62101514Y-91937164D01*
X61981626Y-92222020D01*
X55635000Y-92222020D01*
X55635000Y-91570512D01*
X115559783Y-91570512D01*
X115601213Y-91850130D01*
X115696397Y-92116292D01*
X115763329Y-92241514D01*
X116007298Y-92313097D01*
X116820395Y-91500000D01*
X116007298Y-90686903D01*
X115763329Y-90758486D01*
X115642429Y-91013996D01*
X115573700Y-91288184D01*
X115559783Y-91570512D01*
X55635000Y-91570512D01*
X55635000Y-77247237D01*
X56261928Y-76620309D01*
X56261928Y-78600000D01*
X56274188Y-78724482D01*
X56310498Y-78844180D01*
X56365000Y-78946145D01*
X56365001Y-80839671D01*
X56357089Y-80920000D01*
X56388658Y-81240516D01*
X56482148Y-81548714D01*
X56595999Y-81761714D01*
X56633970Y-81832752D01*
X56838287Y-82081714D01*
X56900682Y-82132920D01*
X61241928Y-86474167D01*
X61241928Y-87200000D01*
X61254188Y-87324482D01*
X61290498Y-87444180D01*
X61349463Y-87554494D01*
X61428815Y-87651185D01*
X61525506Y-87730537D01*
X61635820Y-87789502D01*
X61755518Y-87825812D01*
X61880000Y-87838072D01*
X64280000Y-87838072D01*
X64404482Y-87825812D01*
X64524180Y-87789502D01*
X64634494Y-87730537D01*
X64731185Y-87651185D01*
X64744468Y-87635000D01*
X81335532Y-87635000D01*
X81348815Y-87651185D01*
X81445506Y-87730537D01*
X81555820Y-87789502D01*
X81675518Y-87825812D01*
X81800000Y-87838072D01*
X84200000Y-87838072D01*
X84324482Y-87825812D01*
X84444180Y-87789502D01*
X84554494Y-87730537D01*
X84651185Y-87651185D01*
X84664468Y-87635000D01*
X101335532Y-87635000D01*
X101348815Y-87651185D01*
X101445506Y-87730537D01*
X101555820Y-87789502D01*
X101675518Y-87825812D01*
X101800000Y-87838072D01*
X104200000Y-87838072D01*
X104324482Y-87825812D01*
X104444180Y-87789502D01*
X104554494Y-87730537D01*
X104651185Y-87651185D01*
X104730537Y-87554494D01*
X104789502Y-87444180D01*
X104825812Y-87324482D01*
X104838072Y-87200000D01*
X104838072Y-84800000D01*
X104825812Y-84675518D01*
X104789502Y-84555820D01*
X104730537Y-84445506D01*
X104651185Y-84348815D01*
X104635000Y-84335532D01*
X104635000Y-83477238D01*
X106072238Y-82040000D01*
X115357089Y-82040000D01*
X115365000Y-82120322D01*
X115365001Y-88919668D01*
X115357089Y-89000000D01*
X115388657Y-89320516D01*
X115482148Y-89628715D01*
X115561928Y-89777973D01*
X115561928Y-89800000D01*
X115574188Y-89924482D01*
X115610498Y-90044180D01*
X115669463Y-90154494D01*
X115748815Y-90251185D01*
X115845506Y-90330537D01*
X115955820Y-90389502D01*
X116075518Y-90425812D01*
X116200000Y-90438072D01*
X116207215Y-90438072D01*
X116186903Y-90507298D01*
X117000000Y-91320395D01*
X117014143Y-91306253D01*
X117193748Y-91485858D01*
X117179605Y-91500000D01*
X117992702Y-92313097D01*
X118236671Y-92241514D01*
X118357571Y-91986004D01*
X118426300Y-91711816D01*
X118440217Y-91429488D01*
X118398787Y-91149870D01*
X118303603Y-90883708D01*
X118236671Y-90758486D01*
X117992704Y-90686903D01*
X118044607Y-90635000D01*
X121142762Y-90635000D01*
X122261928Y-91754167D01*
X122261928Y-92280000D01*
X122274188Y-92404482D01*
X122310498Y-92524180D01*
X122369463Y-92634494D01*
X122448815Y-92731185D01*
X122545506Y-92810537D01*
X122655820Y-92869502D01*
X122775518Y-92905812D01*
X122900000Y-92918072D01*
X125100000Y-92918072D01*
X125224482Y-92905812D01*
X125344180Y-92869502D01*
X125454494Y-92810537D01*
X125551185Y-92731185D01*
X125630537Y-92634494D01*
X125689502Y-92524180D01*
X125725812Y-92404482D01*
X125738072Y-92280000D01*
X125738072Y-91754166D01*
X125916116Y-91576122D01*
X132470825Y-91576122D01*
X132535425Y-91789094D01*
X132685469Y-92094329D01*
X132892178Y-92364427D01*
X133147609Y-92589008D01*
X133441946Y-92759442D01*
X133763877Y-92869179D01*
X134033000Y-92751600D01*
X134033000Y-91307000D01*
X134287000Y-91307000D01*
X134287000Y-92751600D01*
X134556123Y-92869179D01*
X134878054Y-92759442D01*
X135172391Y-92589008D01*
X135427822Y-92364427D01*
X135634531Y-92094329D01*
X135784575Y-91789094D01*
X135849175Y-91576122D01*
X135731125Y-91307000D01*
X134287000Y-91307000D01*
X134033000Y-91307000D01*
X132588875Y-91307000D01*
X132470825Y-91576122D01*
X125916116Y-91576122D01*
X126708360Y-90783878D01*
X132470825Y-90783878D01*
X132588875Y-91053000D01*
X134033000Y-91053000D01*
X134033000Y-89608400D01*
X134287000Y-89608400D01*
X134287000Y-91053000D01*
X135731125Y-91053000D01*
X135849175Y-90783878D01*
X135784575Y-90570906D01*
X135634531Y-90265671D01*
X135427822Y-89995573D01*
X135172391Y-89770992D01*
X134878054Y-89600558D01*
X134556123Y-89490821D01*
X134287000Y-89608400D01*
X134033000Y-89608400D01*
X133763877Y-89490821D01*
X133441946Y-89600558D01*
X133147609Y-89770992D01*
X132892178Y-89995573D01*
X132685469Y-90265671D01*
X132535425Y-90570906D01*
X132470825Y-90783878D01*
X126708360Y-90783878D01*
X128742238Y-88750000D01*
X143361928Y-88750000D01*
X143361928Y-91250000D01*
X143374188Y-91374482D01*
X143410498Y-91494180D01*
X143469463Y-91604494D01*
X143548815Y-91701185D01*
X143645506Y-91780537D01*
X143755820Y-91839502D01*
X143875518Y-91875812D01*
X144000000Y-91888072D01*
X146500000Y-91888072D01*
X146624482Y-91875812D01*
X146744180Y-91839502D01*
X146854494Y-91780537D01*
X146951185Y-91701185D01*
X147030537Y-91604494D01*
X147089502Y-91494180D01*
X147125812Y-91374482D01*
X147138072Y-91250000D01*
X147138072Y-90418671D01*
X147266031Y-90262752D01*
X147417852Y-89978715D01*
X147511343Y-89670516D01*
X147535000Y-89430322D01*
X147542911Y-89350000D01*
X147535000Y-89269678D01*
X147535000Y-82777239D01*
X148259323Y-82052916D01*
X148321714Y-82001714D01*
X148526031Y-81752752D01*
X148677852Y-81468715D01*
X148732899Y-81287249D01*
X148771343Y-81160517D01*
X148802911Y-80840000D01*
X148795000Y-80759678D01*
X148795000Y-76119678D01*
X148771343Y-75879484D01*
X148677852Y-75571285D01*
X148526031Y-75287248D01*
X148321714Y-75038286D01*
X148072751Y-74833969D01*
X147788714Y-74682148D01*
X147480515Y-74588657D01*
X147160000Y-74557089D01*
X146839484Y-74588657D01*
X146531285Y-74682148D01*
X146247248Y-74833969D01*
X145998286Y-75038286D01*
X145793969Y-75287249D01*
X145642148Y-75571286D01*
X145548657Y-75879485D01*
X145525000Y-76119679D01*
X145525001Y-80162760D01*
X144787085Y-80900677D01*
X144633970Y-81087248D01*
X144482148Y-81371286D01*
X144473091Y-81401144D01*
X144382148Y-81571286D01*
X144288657Y-81879485D01*
X144265000Y-82119679D01*
X144265001Y-88111928D01*
X144000000Y-88111928D01*
X143875518Y-88124188D01*
X143755820Y-88160498D01*
X143645506Y-88219463D01*
X143548815Y-88298815D01*
X143469463Y-88395506D01*
X143410498Y-88505820D01*
X143374188Y-88625518D01*
X143361928Y-88750000D01*
X128742238Y-88750000D01*
X135257239Y-82235000D01*
X140880322Y-82235000D01*
X141120516Y-82211343D01*
X141428715Y-82117852D01*
X141712752Y-81966031D01*
X141961714Y-81761714D01*
X142166031Y-81512752D01*
X142317852Y-81228715D01*
X142411343Y-80920516D01*
X142442911Y-80600000D01*
X142411343Y-80279484D01*
X142317852Y-79971285D01*
X142166031Y-79687248D01*
X141961714Y-79438286D01*
X141712752Y-79233969D01*
X141428715Y-79082148D01*
X141120516Y-78988657D01*
X140880322Y-78965000D01*
X134660319Y-78965000D01*
X134579999Y-78957089D01*
X134499679Y-78965000D01*
X134499678Y-78965000D01*
X134259484Y-78988657D01*
X133951285Y-79082148D01*
X133667248Y-79233969D01*
X133418286Y-79438286D01*
X133367080Y-79500681D01*
X124000000Y-88867761D01*
X123032924Y-87900686D01*
X122981714Y-87838286D01*
X122732752Y-87633969D01*
X122448715Y-87482148D01*
X122140516Y-87388657D01*
X121900322Y-87365000D01*
X121900319Y-87365000D01*
X121820000Y-87357089D01*
X121739681Y-87365000D01*
X118635000Y-87365000D01*
X118635000Y-83675000D01*
X119919681Y-83675000D01*
X120000000Y-83682911D01*
X120080319Y-83675000D01*
X120080322Y-83675000D01*
X120320516Y-83651343D01*
X120628715Y-83557852D01*
X120912752Y-83406031D01*
X121161714Y-83201714D01*
X121212925Y-83139313D01*
X128152238Y-76200000D01*
X137897089Y-76200000D01*
X137928658Y-76520516D01*
X138022148Y-76828714D01*
X138173970Y-77112752D01*
X138378287Y-77361713D01*
X138627248Y-77566030D01*
X138911286Y-77717852D01*
X139219484Y-77811342D01*
X139540000Y-77842911D01*
X139860516Y-77811342D01*
X140168714Y-77717852D01*
X140452752Y-77566030D01*
X140639323Y-77412915D01*
X142099318Y-75952921D01*
X142161714Y-75901714D01*
X142366031Y-75652752D01*
X142517852Y-75368715D01*
X142543174Y-75285241D01*
X142611343Y-75060517D01*
X142642911Y-74740000D01*
X142635000Y-74659678D01*
X142635000Y-71159678D01*
X142611343Y-70919484D01*
X142517852Y-70611285D01*
X142366031Y-70327248D01*
X142219810Y-70149076D01*
X142254494Y-70130537D01*
X142351185Y-70051185D01*
X142430537Y-69954494D01*
X142489502Y-69844180D01*
X142525812Y-69724482D01*
X142538072Y-69600000D01*
X142535000Y-68985750D01*
X142376250Y-68827000D01*
X141127000Y-68827000D01*
X141127000Y-68847000D01*
X140873000Y-68847000D01*
X140873000Y-68827000D01*
X139623750Y-68827000D01*
X139465000Y-68985750D01*
X139461928Y-69600000D01*
X139474188Y-69724482D01*
X139510498Y-69844180D01*
X139569463Y-69954494D01*
X139648815Y-70051185D01*
X139745506Y-70130537D01*
X139780190Y-70149076D01*
X139633969Y-70327249D01*
X139482148Y-70611286D01*
X139388657Y-70919485D01*
X139365000Y-71159679D01*
X139365001Y-74062761D01*
X138327085Y-75100677D01*
X138173970Y-75287248D01*
X138022148Y-75571286D01*
X137928658Y-75879484D01*
X137897089Y-76200000D01*
X128152238Y-76200000D01*
X128259319Y-76092920D01*
X128321714Y-76041714D01*
X128526031Y-75792752D01*
X128677852Y-75508715D01*
X128771343Y-75200516D01*
X128795000Y-74960322D01*
X128795000Y-74960320D01*
X128802911Y-74880001D01*
X128795000Y-74799681D01*
X128795000Y-69086535D01*
X128828325Y-69006081D01*
X128895000Y-68670883D01*
X128895000Y-68329117D01*
X128828325Y-67993919D01*
X128748002Y-67800000D01*
X139461928Y-67800000D01*
X139465000Y-68414250D01*
X139623750Y-68573000D01*
X140873000Y-68573000D01*
X140873000Y-67323750D01*
X141127000Y-67323750D01*
X141127000Y-68573000D01*
X142376250Y-68573000D01*
X142535000Y-68414250D01*
X142538072Y-67800000D01*
X142525812Y-67675518D01*
X142489502Y-67555820D01*
X142430537Y-67445506D01*
X142351185Y-67348815D01*
X142254494Y-67269463D01*
X142144180Y-67210498D01*
X142024482Y-67174188D01*
X141900000Y-67161928D01*
X141285750Y-67165000D01*
X141127000Y-67323750D01*
X140873000Y-67323750D01*
X140714250Y-67165000D01*
X140100000Y-67161928D01*
X139975518Y-67174188D01*
X139855820Y-67210498D01*
X139745506Y-67269463D01*
X139648815Y-67348815D01*
X139569463Y-67445506D01*
X139510498Y-67555820D01*
X139474188Y-67675518D01*
X139461928Y-67800000D01*
X128748002Y-67800000D01*
X128697537Y-67678169D01*
X128507663Y-67394002D01*
X128265998Y-67152337D01*
X127981831Y-66962463D01*
X127666081Y-66831675D01*
X127405650Y-66779872D01*
X144765000Y-66779872D01*
X144765000Y-67220128D01*
X144850890Y-67651925D01*
X145019369Y-68058669D01*
X145263962Y-68424729D01*
X145575271Y-68736038D01*
X145941331Y-68980631D01*
X146348075Y-69149110D01*
X146779872Y-69235000D01*
X147220128Y-69235000D01*
X147651925Y-69149110D01*
X148058669Y-68980631D01*
X148424729Y-68736038D01*
X148736038Y-68424729D01*
X148980631Y-68058669D01*
X149149110Y-67651925D01*
X149235000Y-67220128D01*
X149235000Y-66779872D01*
X149149110Y-66348075D01*
X148980631Y-65941331D01*
X148736038Y-65575271D01*
X148424729Y-65263962D01*
X148058669Y-65019369D01*
X147651925Y-64850890D01*
X147220128Y-64765000D01*
X146779872Y-64765000D01*
X146348075Y-64850890D01*
X145941331Y-65019369D01*
X145575271Y-65263962D01*
X145263962Y-65575271D01*
X145019369Y-65941331D01*
X144850890Y-66348075D01*
X144765000Y-66779872D01*
X127405650Y-66779872D01*
X127330883Y-66765000D01*
X126989117Y-66765000D01*
X126653919Y-66831675D01*
X126338169Y-66962463D01*
X126054002Y-67152337D01*
X125812337Y-67394002D01*
X125622463Y-67678169D01*
X125491675Y-67993919D01*
X125425000Y-68329117D01*
X125425000Y-68670883D01*
X125491675Y-69006081D01*
X125525000Y-69086535D01*
X125525001Y-74202760D01*
X119322762Y-80405000D01*
X118345406Y-80405000D01*
X118375969Y-80366923D01*
X118519571Y-80091094D01*
X118590563Y-79872980D01*
X118470594Y-79627000D01*
X117127000Y-79627000D01*
X117127000Y-79647000D01*
X116873000Y-79647000D01*
X116873000Y-79627000D01*
X115529406Y-79627000D01*
X115409437Y-79872980D01*
X115480429Y-80091094D01*
X115624031Y-80366923D01*
X115818685Y-80609437D01*
X115990363Y-80753480D01*
X115838286Y-80878286D01*
X115633969Y-81127248D01*
X115482148Y-81411285D01*
X115388657Y-81719484D01*
X115357089Y-82040000D01*
X106072238Y-82040000D01*
X107619537Y-80492702D01*
X110186903Y-80492702D01*
X110258486Y-80736671D01*
X110513996Y-80857571D01*
X110788184Y-80926300D01*
X111070512Y-80940217D01*
X111350130Y-80898787D01*
X111616292Y-80803603D01*
X111741514Y-80736671D01*
X111813097Y-80492702D01*
X111000000Y-79679605D01*
X110186903Y-80492702D01*
X107619537Y-80492702D01*
X109477240Y-78635000D01*
X109955393Y-78635000D01*
X110007296Y-78686903D01*
X109763329Y-78758486D01*
X109642429Y-79013996D01*
X109573700Y-79288184D01*
X109559783Y-79570512D01*
X109601213Y-79850130D01*
X109696397Y-80116292D01*
X109763329Y-80241514D01*
X110007298Y-80313097D01*
X110820395Y-79500000D01*
X110806253Y-79485858D01*
X110985858Y-79306253D01*
X111000000Y-79320395D01*
X111014143Y-79306253D01*
X111193748Y-79485858D01*
X111179605Y-79500000D01*
X111992702Y-80313097D01*
X112236671Y-80241514D01*
X112357571Y-79986004D01*
X112426300Y-79711816D01*
X112440217Y-79429488D01*
X112398787Y-79149870D01*
X112303603Y-78883708D01*
X112236671Y-78758486D01*
X111992704Y-78686903D01*
X112044607Y-78635000D01*
X115623030Y-78635000D01*
X115480429Y-78908906D01*
X115409437Y-79127020D01*
X115529406Y-79373000D01*
X116873000Y-79373000D01*
X116873000Y-79353000D01*
X117127000Y-79353000D01*
X117127000Y-79373000D01*
X118470594Y-79373000D01*
X118590563Y-79127020D01*
X118519571Y-78908906D01*
X118375969Y-78633077D01*
X118262781Y-78492059D01*
X118354494Y-78443037D01*
X118451185Y-78363685D01*
X118530537Y-78266994D01*
X118589502Y-78156680D01*
X118625812Y-78036982D01*
X118638072Y-77912500D01*
X118638072Y-77009140D01*
X118642912Y-76960000D01*
X118638072Y-76910860D01*
X118638072Y-76007500D01*
X118635000Y-75976308D01*
X118635000Y-69946144D01*
X118689502Y-69844180D01*
X118725812Y-69724482D01*
X118738072Y-69600000D01*
X118738072Y-67400000D01*
X118725812Y-67275518D01*
X118689502Y-67155820D01*
X118630537Y-67045506D01*
X118551185Y-66948815D01*
X118454494Y-66869463D01*
X118344180Y-66810498D01*
X118224482Y-66774188D01*
X118100000Y-66761928D01*
X115900000Y-66761928D01*
X115775518Y-66774188D01*
X115655820Y-66810498D01*
X115545506Y-66869463D01*
X115448815Y-66948815D01*
X115369463Y-67045506D01*
X115310498Y-67155820D01*
X115274188Y-67275518D01*
X115261928Y-67400000D01*
X115261928Y-69600000D01*
X115274188Y-69724482D01*
X115310498Y-69844180D01*
X115365000Y-69946145D01*
X115365001Y-75365000D01*
X108880322Y-75365000D01*
X108800000Y-75357089D01*
X108479483Y-75388657D01*
X108209103Y-75470676D01*
X108171285Y-75482148D01*
X107887248Y-75633969D01*
X107638286Y-75838286D01*
X107587084Y-75900676D01*
X101900682Y-81587080D01*
X101838287Y-81638286D01*
X101764008Y-81728796D01*
X101633970Y-81887248D01*
X101482148Y-82171286D01*
X101388658Y-82479484D01*
X101357089Y-82800000D01*
X101365001Y-82880329D01*
X101365001Y-84335532D01*
X101348815Y-84348815D01*
X101335532Y-84365000D01*
X84664468Y-84365000D01*
X84651185Y-84348815D01*
X84554494Y-84269463D01*
X84444180Y-84210498D01*
X84324482Y-84174188D01*
X84200000Y-84161928D01*
X81800000Y-84161928D01*
X81675518Y-84174188D01*
X81555820Y-84210498D01*
X81445506Y-84269463D01*
X81348815Y-84348815D01*
X81335532Y-84365000D01*
X64744468Y-84365000D01*
X64731185Y-84348815D01*
X64634494Y-84269463D01*
X64524180Y-84210498D01*
X64404482Y-84174188D01*
X64280000Y-84161928D01*
X63554167Y-84161928D01*
X59635000Y-80242762D01*
X59635000Y-78946144D01*
X59689502Y-78844180D01*
X59725812Y-78724482D01*
X59738072Y-78600000D01*
X59738072Y-76400000D01*
X59725812Y-76275518D01*
X59689502Y-76155820D01*
X59630537Y-76045506D01*
X59551185Y-75948815D01*
X59454494Y-75869463D01*
X59344180Y-75810498D01*
X59224482Y-75774188D01*
X59100000Y-75761928D01*
X57120310Y-75761928D01*
X58247238Y-74635000D01*
X68712762Y-74635000D01*
X67418625Y-75929137D01*
X67338169Y-75962463D01*
X67054002Y-76152337D01*
X66812337Y-76394002D01*
X66622463Y-76678169D01*
X66491675Y-76993919D01*
X66425000Y-77329117D01*
X66425000Y-77670883D01*
X66491675Y-78006081D01*
X66622463Y-78321831D01*
X66812337Y-78605998D01*
X67054002Y-78847663D01*
X67338169Y-79037537D01*
X67653919Y-79168325D01*
X67989117Y-79235000D01*
X68330883Y-79235000D01*
X68666081Y-79168325D01*
X68981831Y-79037537D01*
X69265998Y-78847663D01*
X69507663Y-78605998D01*
X69697537Y-78321831D01*
X69730863Y-78241375D01*
X73053419Y-74918820D01*
X73377244Y-75052953D01*
X73789721Y-75135000D01*
X74210279Y-75135000D01*
X74622756Y-75052953D01*
X75011302Y-74892012D01*
X75360983Y-74658363D01*
X75384346Y-74635000D01*
X84615654Y-74635000D01*
X84639017Y-74658363D01*
X84988698Y-74892012D01*
X85377244Y-75052953D01*
X85789721Y-75135000D01*
X86210279Y-75135000D01*
X86622756Y-75052953D01*
X87011302Y-74892012D01*
X87360983Y-74658363D01*
X87658363Y-74360983D01*
X87892012Y-74011302D01*
X88052953Y-73622756D01*
X88135000Y-73210279D01*
X88135000Y-72789721D01*
X88052953Y-72377244D01*
X87892012Y-71988698D01*
X87658363Y-71639017D01*
X87360983Y-71341637D01*
X87011302Y-71107988D01*
X86622756Y-70947047D01*
X86210279Y-70865000D01*
X85789721Y-70865000D01*
X85377244Y-70947047D01*
X84988698Y-71107988D01*
X84639017Y-71341637D01*
X84615654Y-71365000D01*
X75384346Y-71365000D01*
X75360983Y-71341637D01*
X75011302Y-71107988D01*
X74622756Y-70947047D01*
X74210279Y-70865000D01*
X73789721Y-70865000D01*
X73377244Y-70947047D01*
X72988698Y-71107988D01*
X72639017Y-71341637D01*
X72619584Y-71361070D01*
X72579680Y-71365000D01*
X57650318Y-71365000D01*
X57569998Y-71357089D01*
X57489679Y-71365000D01*
X57489677Y-71365000D01*
X57249483Y-71388657D01*
X56941284Y-71482148D01*
X56657247Y-71633969D01*
X56408285Y-71838286D01*
X56357079Y-71900681D01*
X52900682Y-75357079D01*
X52838287Y-75408285D01*
X52633970Y-75657247D01*
X52482148Y-75941285D01*
X52388658Y-76249483D01*
X52357089Y-76569999D01*
X50660000Y-76569999D01*
X50660000Y-69500000D01*
X71861928Y-69500000D01*
X71874188Y-69624482D01*
X71910498Y-69744180D01*
X71969463Y-69854494D01*
X72048815Y-69951185D01*
X72145506Y-70030537D01*
X72255820Y-70089502D01*
X72375518Y-70125812D01*
X72500000Y-70138072D01*
X73714250Y-70135000D01*
X73873000Y-69976250D01*
X73873000Y-68127000D01*
X74127000Y-68127000D01*
X74127000Y-69976250D01*
X74285750Y-70135000D01*
X75500000Y-70138072D01*
X75624482Y-70125812D01*
X75744180Y-70089502D01*
X75854494Y-70030537D01*
X75951185Y-69951185D01*
X76030537Y-69854494D01*
X76089502Y-69744180D01*
X76125812Y-69624482D01*
X76138072Y-69500000D01*
X83861928Y-69500000D01*
X83874188Y-69624482D01*
X83910498Y-69744180D01*
X83969463Y-69854494D01*
X84048815Y-69951185D01*
X84145506Y-70030537D01*
X84255820Y-70089502D01*
X84375518Y-70125812D01*
X84500000Y-70138072D01*
X85714250Y-70135000D01*
X85873000Y-69976250D01*
X85873000Y-68127000D01*
X86127000Y-68127000D01*
X86127000Y-69976250D01*
X86285750Y-70135000D01*
X87500000Y-70138072D01*
X87624482Y-70125812D01*
X87744180Y-70089502D01*
X87854494Y-70030537D01*
X87951185Y-69951185D01*
X88030537Y-69854494D01*
X88089502Y-69744180D01*
X88125812Y-69624482D01*
X88138072Y-69500000D01*
X88135000Y-68285750D01*
X87976250Y-68127000D01*
X86127000Y-68127000D01*
X85873000Y-68127000D01*
X84023750Y-68127000D01*
X83865000Y-68285750D01*
X83861928Y-69500000D01*
X76138072Y-69500000D01*
X76135000Y-68285750D01*
X75976250Y-68127000D01*
X74127000Y-68127000D01*
X73873000Y-68127000D01*
X72023750Y-68127000D01*
X71865000Y-68285750D01*
X71861928Y-69500000D01*
X50660000Y-69500000D01*
X50660000Y-66779872D01*
X50765000Y-66779872D01*
X50765000Y-67220128D01*
X50850890Y-67651925D01*
X51019369Y-68058669D01*
X51263962Y-68424729D01*
X51575271Y-68736038D01*
X51941331Y-68980631D01*
X52348075Y-69149110D01*
X52779872Y-69235000D01*
X53220128Y-69235000D01*
X53651925Y-69149110D01*
X54058669Y-68980631D01*
X54424729Y-68736038D01*
X54736038Y-68424729D01*
X54980631Y-68058669D01*
X55149110Y-67651925D01*
X55235000Y-67220128D01*
X55235000Y-66779872D01*
X55179330Y-66500000D01*
X71861928Y-66500000D01*
X71865000Y-67714250D01*
X72023750Y-67873000D01*
X73873000Y-67873000D01*
X73873000Y-66023750D01*
X74127000Y-66023750D01*
X74127000Y-67873000D01*
X75976250Y-67873000D01*
X76135000Y-67714250D01*
X76138072Y-66500000D01*
X83861928Y-66500000D01*
X83865000Y-67714250D01*
X84023750Y-67873000D01*
X85873000Y-67873000D01*
X85873000Y-66023750D01*
X86127000Y-66023750D01*
X86127000Y-67873000D01*
X87976250Y-67873000D01*
X88135000Y-67714250D01*
X88138072Y-66500000D01*
X88125812Y-66375518D01*
X88089502Y-66255820D01*
X88030537Y-66145506D01*
X87951185Y-66048815D01*
X87854494Y-65969463D01*
X87744180Y-65910498D01*
X87624482Y-65874188D01*
X87500000Y-65861928D01*
X86285750Y-65865000D01*
X86127000Y-66023750D01*
X85873000Y-66023750D01*
X85714250Y-65865000D01*
X84500000Y-65861928D01*
X84375518Y-65874188D01*
X84255820Y-65910498D01*
X84145506Y-65969463D01*
X84048815Y-66048815D01*
X83969463Y-66145506D01*
X83910498Y-66255820D01*
X83874188Y-66375518D01*
X83861928Y-66500000D01*
X76138072Y-66500000D01*
X76125812Y-66375518D01*
X76089502Y-66255820D01*
X76030537Y-66145506D01*
X75951185Y-66048815D01*
X75854494Y-65969463D01*
X75744180Y-65910498D01*
X75624482Y-65874188D01*
X75500000Y-65861928D01*
X74285750Y-65865000D01*
X74127000Y-66023750D01*
X73873000Y-66023750D01*
X73714250Y-65865000D01*
X72500000Y-65861928D01*
X72375518Y-65874188D01*
X72255820Y-65910498D01*
X72145506Y-65969463D01*
X72048815Y-66048815D01*
X71969463Y-66145506D01*
X71910498Y-66255820D01*
X71874188Y-66375518D01*
X71861928Y-66500000D01*
X55179330Y-66500000D01*
X55149110Y-66348075D01*
X54980631Y-65941331D01*
X54736038Y-65575271D01*
X54424729Y-65263962D01*
X54058669Y-65019369D01*
X53651925Y-64850890D01*
X53220128Y-64765000D01*
X52779872Y-64765000D01*
X52348075Y-64850890D01*
X51941331Y-65019369D01*
X51575271Y-65263962D01*
X51263962Y-65575271D01*
X51019369Y-65941331D01*
X50850890Y-66348075D01*
X50765000Y-66779872D01*
X50660000Y-66779872D01*
X50660000Y-64660000D01*
X149340000Y-64660000D01*
X149340001Y-124340000D01*
%TA.AperFunction,Conductor*%
D28*
G36*
X149340001Y-124340000D02*
G01*
X50660000Y-124340000D01*
X50660000Y-121779872D01*
X50765000Y-121779872D01*
X50765000Y-122220128D01*
X50850890Y-122651925D01*
X51019369Y-123058669D01*
X51263962Y-123424729D01*
X51575271Y-123736038D01*
X51941331Y-123980631D01*
X52348075Y-124149110D01*
X52779872Y-124235000D01*
X53220128Y-124235000D01*
X53651925Y-124149110D01*
X54058669Y-123980631D01*
X54424729Y-123736038D01*
X54736038Y-123424729D01*
X54980631Y-123058669D01*
X55149110Y-122651925D01*
X55235000Y-122220128D01*
X55235000Y-121779872D01*
X55149110Y-121348075D01*
X54980631Y-120941331D01*
X54736038Y-120575271D01*
X54424729Y-120263962D01*
X54058669Y-120019369D01*
X53651925Y-119850890D01*
X53220128Y-119765000D01*
X52779872Y-119765000D01*
X52348075Y-119850890D01*
X51941331Y-120019369D01*
X51575271Y-120263962D01*
X51263962Y-120575271D01*
X51019369Y-120941331D01*
X50850890Y-121348075D01*
X50765000Y-121779872D01*
X50660000Y-121779872D01*
X50660000Y-76569999D01*
X52357089Y-76569999D01*
X52365001Y-76650328D01*
X52365000Y-114919681D01*
X52357089Y-115000000D01*
X52365000Y-115080319D01*
X52365000Y-115080321D01*
X52388657Y-115320515D01*
X52482148Y-115628714D01*
X52633969Y-115912751D01*
X52838286Y-116161714D01*
X52900687Y-116212925D01*
X56365001Y-119677240D01*
X56365000Y-121053855D01*
X56310498Y-121155820D01*
X56274188Y-121275518D01*
X56261928Y-121400000D01*
X56261928Y-123600000D01*
X56274188Y-123724482D01*
X56310498Y-123844180D01*
X56369463Y-123954494D01*
X56448815Y-124051185D01*
X56545506Y-124130537D01*
X56655820Y-124189502D01*
X56775518Y-124225812D01*
X56900000Y-124238072D01*
X59100000Y-124238072D01*
X59224482Y-124225812D01*
X59344180Y-124189502D01*
X59454494Y-124130537D01*
X59551185Y-124051185D01*
X59630537Y-123954494D01*
X59689502Y-123844180D01*
X59725812Y-123724482D01*
X59738072Y-123600000D01*
X59738072Y-121400000D01*
X59725812Y-121275518D01*
X59689502Y-121155820D01*
X59635000Y-121053856D01*
X59635000Y-119080319D01*
X59642911Y-118999999D01*
X59634745Y-118917090D01*
X59611343Y-118679484D01*
X59517852Y-118371285D01*
X59366031Y-118087248D01*
X59161714Y-117838286D01*
X59099319Y-117787080D01*
X55635000Y-114322762D01*
X55635000Y-113819268D01*
X61245000Y-113819268D01*
X61245000Y-114180732D01*
X61315518Y-114535250D01*
X61445001Y-114847849D01*
X61445000Y-116999680D01*
X61437089Y-117080000D01*
X61445000Y-117160319D01*
X61445000Y-117160321D01*
X61468657Y-117400515D01*
X61562148Y-117708714D01*
X61713969Y-117992751D01*
X61918286Y-118241714D01*
X61980687Y-118292925D01*
X66441476Y-122753715D01*
X66491675Y-123006081D01*
X66622463Y-123321831D01*
X66812337Y-123605998D01*
X67054002Y-123847663D01*
X67338169Y-124037537D01*
X67653919Y-124168325D01*
X67989117Y-124235000D01*
X68330883Y-124235000D01*
X68666081Y-124168325D01*
X68981831Y-124037537D01*
X69265998Y-123847663D01*
X69507663Y-123605998D01*
X69697537Y-123321831D01*
X69828325Y-123006081D01*
X69895000Y-122670883D01*
X69895000Y-122604080D01*
X140115525Y-122604080D01*
X140199208Y-122858261D01*
X140471775Y-122989158D01*
X140764642Y-123064365D01*
X141066553Y-123080991D01*
X141365907Y-123038397D01*
X141651199Y-122938222D01*
X141800792Y-122858261D01*
X141884475Y-122604080D01*
X141000000Y-121719605D01*
X140115525Y-122604080D01*
X69895000Y-122604080D01*
X69895000Y-122329117D01*
X69828325Y-121993919D01*
X69773523Y-121861614D01*
X69771343Y-121839485D01*
X69700684Y-121606553D01*
X69677852Y-121531285D01*
X69579924Y-121348075D01*
X69526031Y-121247248D01*
X69321714Y-120998286D01*
X69259319Y-120947080D01*
X64715000Y-116402762D01*
X64715000Y-115635000D01*
X82152152Y-115635000D01*
X82464750Y-115764482D01*
X82819268Y-115835000D01*
X83180732Y-115835000D01*
X83535250Y-115764482D01*
X83847848Y-115635000D01*
X102152152Y-115635000D01*
X102464750Y-115764482D01*
X102819268Y-115835000D01*
X103180732Y-115835000D01*
X103535250Y-115764482D01*
X103869199Y-115626156D01*
X104169744Y-115425338D01*
X104425338Y-115169744D01*
X104626156Y-114869199D01*
X104755639Y-114556599D01*
X110177239Y-109135000D01*
X111419678Y-109135000D01*
X111500000Y-109142911D01*
X111580322Y-109135000D01*
X113068256Y-109135000D01*
X113057088Y-109248392D01*
X113064999Y-109328712D01*
X113065000Y-120479672D01*
X113057088Y-120560001D01*
X113088657Y-120880517D01*
X113182147Y-121188715D01*
X113267327Y-121348075D01*
X113333969Y-121472753D01*
X113538286Y-121721715D01*
X113600681Y-121772921D01*
X113727074Y-121899314D01*
X113778285Y-121961715D01*
X114027247Y-122166032D01*
X114311284Y-122317853D01*
X114619483Y-122411344D01*
X114859677Y-122435001D01*
X114859679Y-122435001D01*
X114939998Y-122442912D01*
X115020318Y-122435001D01*
X124779680Y-122435001D01*
X124859999Y-122442912D01*
X124940318Y-122435001D01*
X124940321Y-122435001D01*
X125180515Y-122411344D01*
X125488714Y-122317853D01*
X125772751Y-122166032D01*
X126021713Y-121961715D01*
X126072923Y-121899315D01*
X127901378Y-120070862D01*
X127981831Y-120037537D01*
X128265998Y-119847663D01*
X128507663Y-119605998D01*
X128697537Y-119321831D01*
X128828325Y-119006081D01*
X128895000Y-118670883D01*
X128895000Y-118329117D01*
X128828325Y-117993919D01*
X128697537Y-117678169D01*
X128507663Y-117394002D01*
X128265998Y-117152337D01*
X127981831Y-116962463D01*
X127666081Y-116831675D01*
X127330883Y-116765000D01*
X126989117Y-116765000D01*
X126653919Y-116831675D01*
X126338169Y-116962463D01*
X126054002Y-117152337D01*
X125812337Y-117394002D01*
X125622463Y-117678169D01*
X125589138Y-117758622D01*
X124182761Y-119165001D01*
X118738072Y-119165001D01*
X118738072Y-117400000D01*
X118725812Y-117275518D01*
X118689502Y-117155820D01*
X118635000Y-117053856D01*
X118635000Y-114000000D01*
X137997089Y-114000000D01*
X138028658Y-114320516D01*
X138122148Y-114628714D01*
X138273970Y-114912752D01*
X138427085Y-115099323D01*
X139365001Y-116037239D01*
X139365000Y-119080321D01*
X139388657Y-119320515D01*
X139461928Y-119562057D01*
X139461928Y-119900000D01*
X139474188Y-120024482D01*
X139510498Y-120144180D01*
X139569463Y-120254494D01*
X139648815Y-120351185D01*
X139745506Y-120430537D01*
X139855820Y-120489502D01*
X139866735Y-120492813D01*
X139819970Y-120539578D01*
X139935918Y-120655526D01*
X139681739Y-120739208D01*
X139550842Y-121011775D01*
X139475635Y-121304642D01*
X139459009Y-121606553D01*
X139501603Y-121905907D01*
X139601778Y-122191199D01*
X139681739Y-122340792D01*
X139935920Y-122424475D01*
X140820395Y-121540000D01*
X140806253Y-121525858D01*
X140985858Y-121346253D01*
X141000000Y-121360395D01*
X141014143Y-121346253D01*
X141193748Y-121525858D01*
X141179605Y-121540000D01*
X142064080Y-122424475D01*
X142318261Y-122340792D01*
X142449158Y-122068225D01*
X142523205Y-121779872D01*
X144765000Y-121779872D01*
X144765000Y-122220128D01*
X144850890Y-122651925D01*
X145019369Y-123058669D01*
X145263962Y-123424729D01*
X145575271Y-123736038D01*
X145941331Y-123980631D01*
X146348075Y-124149110D01*
X146779872Y-124235000D01*
X147220128Y-124235000D01*
X147651925Y-124149110D01*
X148058669Y-123980631D01*
X148424729Y-123736038D01*
X148736038Y-123424729D01*
X148980631Y-123058669D01*
X149149110Y-122651925D01*
X149235000Y-122220128D01*
X149235000Y-121779872D01*
X149149110Y-121348075D01*
X148980631Y-120941331D01*
X148736038Y-120575271D01*
X148424729Y-120263962D01*
X148058669Y-120019369D01*
X147651925Y-119850890D01*
X147220128Y-119765000D01*
X146779872Y-119765000D01*
X146348075Y-119850890D01*
X145941331Y-120019369D01*
X145575271Y-120263962D01*
X145263962Y-120575271D01*
X145019369Y-120941331D01*
X144850890Y-121348075D01*
X144765000Y-121779872D01*
X142523205Y-121779872D01*
X142524365Y-121775358D01*
X142540991Y-121473447D01*
X142498397Y-121174093D01*
X142398222Y-120888801D01*
X142318261Y-120739208D01*
X142064082Y-120655526D01*
X142180030Y-120539578D01*
X142133265Y-120492813D01*
X142144180Y-120489502D01*
X142254494Y-120430537D01*
X142351185Y-120351185D01*
X142430537Y-120254494D01*
X142489502Y-120144180D01*
X142525812Y-120024482D01*
X142538072Y-119900000D01*
X142538072Y-119562058D01*
X142611343Y-119320516D01*
X142635000Y-119080322D01*
X142635000Y-115440319D01*
X142642911Y-115359999D01*
X142624172Y-115169744D01*
X142611343Y-115039484D01*
X142517852Y-114731285D01*
X142366031Y-114447248D01*
X142161714Y-114198286D01*
X142099318Y-114147079D01*
X140739323Y-112787085D01*
X140552752Y-112633970D01*
X140268714Y-112482148D01*
X139960516Y-112388658D01*
X139640000Y-112357089D01*
X139319484Y-112388658D01*
X139011286Y-112482148D01*
X138727248Y-112633970D01*
X138478287Y-112838287D01*
X138273970Y-113087248D01*
X138122148Y-113371286D01*
X138028658Y-113679484D01*
X137997089Y-114000000D01*
X118635000Y-114000000D01*
X118635000Y-111282138D01*
X118732997Y-111201714D01*
X118784208Y-111139314D01*
X120299328Y-109624194D01*
X120361724Y-109572987D01*
X120566041Y-109324025D01*
X120717862Y-109039988D01*
X120747988Y-108940677D01*
X120811353Y-108731790D01*
X120842921Y-108411273D01*
X120835010Y-108330951D01*
X120835010Y-100434999D01*
X131057394Y-100434999D01*
X131137713Y-100442910D01*
X131218032Y-100434999D01*
X131218035Y-100434999D01*
X131458229Y-100411342D01*
X131766428Y-100317851D01*
X132050465Y-100166030D01*
X132299427Y-99961713D01*
X132350638Y-99899312D01*
X134160000Y-98089950D01*
X139265001Y-103194952D01*
X139265000Y-107980321D01*
X139288657Y-108220515D01*
X139382148Y-108528714D01*
X139533969Y-108812751D01*
X139738286Y-109061714D01*
X139987248Y-109266031D01*
X140271285Y-109417852D01*
X140579484Y-109511343D01*
X140900000Y-109542911D01*
X141220515Y-109511343D01*
X141528714Y-109417852D01*
X141812751Y-109266031D01*
X142061714Y-109061714D01*
X142266031Y-108812752D01*
X142417852Y-108528715D01*
X142511343Y-108220516D01*
X142535000Y-107980322D01*
X142535000Y-102598031D01*
X142542911Y-102517711D01*
X142535000Y-102437390D01*
X142511343Y-102197196D01*
X142417852Y-101888997D01*
X142266031Y-101604960D01*
X142061714Y-101355998D01*
X141999319Y-101304792D01*
X140508871Y-99814344D01*
X143365000Y-99814344D01*
X143365000Y-100185656D01*
X143437439Y-100549834D01*
X143579534Y-100892882D01*
X143615000Y-100945961D01*
X143615001Y-108669671D01*
X143607089Y-108750000D01*
X143638658Y-109070516D01*
X143732148Y-109378714D01*
X143863836Y-109625084D01*
X143883970Y-109662752D01*
X144088287Y-109911714D01*
X144150682Y-109962920D01*
X144365000Y-110177238D01*
X144365001Y-112659671D01*
X144357089Y-112740000D01*
X144388658Y-113060516D01*
X144482148Y-113368714D01*
X144542780Y-113482148D01*
X144633970Y-113652752D01*
X144838287Y-113901714D01*
X144900682Y-113952920D01*
X146160676Y-115212915D01*
X146347247Y-115366030D01*
X146631285Y-115517852D01*
X146939483Y-115611342D01*
X147259999Y-115642911D01*
X147580516Y-115611342D01*
X147888714Y-115517852D01*
X148172752Y-115366030D01*
X148421713Y-115161713D01*
X148626030Y-114912752D01*
X148777852Y-114628714D01*
X148871342Y-114320516D01*
X148902911Y-113999999D01*
X148871342Y-113679483D01*
X148777852Y-113371285D01*
X148626030Y-113087247D01*
X148472915Y-112900676D01*
X147635000Y-112062762D01*
X147635000Y-109580319D01*
X147642911Y-109499999D01*
X147634173Y-109411285D01*
X147611343Y-109179484D01*
X147517852Y-108871285D01*
X147366031Y-108587248D01*
X147161714Y-108338286D01*
X147099314Y-108287076D01*
X146885000Y-108072762D01*
X146885000Y-100945961D01*
X146920466Y-100892882D01*
X147062561Y-100549834D01*
X147135000Y-100185656D01*
X147135000Y-99814344D01*
X147062561Y-99450166D01*
X146920466Y-99107118D01*
X146714175Y-98798382D01*
X146451618Y-98535825D01*
X146142882Y-98329534D01*
X145799834Y-98187439D01*
X145435656Y-98115000D01*
X145064344Y-98115000D01*
X144700166Y-98187439D01*
X144357118Y-98329534D01*
X144048382Y-98535825D01*
X143785825Y-98798382D01*
X143579534Y-99107118D01*
X143437439Y-99450166D01*
X143365000Y-99814344D01*
X140508871Y-99814344D01*
X137008132Y-96313605D01*
X144116000Y-96313605D01*
X144241914Y-96603577D01*
X144574126Y-96769433D01*
X144932312Y-96867290D01*
X145302706Y-96893389D01*
X145671075Y-96846725D01*
X146023262Y-96729094D01*
X146258086Y-96603577D01*
X146384000Y-96313605D01*
X145250000Y-95179605D01*
X144116000Y-96313605D01*
X137008132Y-96313605D01*
X135747233Y-95052706D01*
X143356611Y-95052706D01*
X143403275Y-95421075D01*
X143520906Y-95773262D01*
X143646423Y-96008086D01*
X143936395Y-96134000D01*
X145070395Y-95000000D01*
X145429605Y-95000000D01*
X146563605Y-96134000D01*
X146853577Y-96008086D01*
X147019433Y-95675874D01*
X147117290Y-95317688D01*
X147143389Y-94947294D01*
X147096725Y-94578925D01*
X146979094Y-94226738D01*
X146853577Y-93991914D01*
X146563605Y-93866000D01*
X145429605Y-95000000D01*
X145070395Y-95000000D01*
X143936395Y-93866000D01*
X143646423Y-93991914D01*
X143480567Y-94324126D01*
X143382710Y-94682312D01*
X143356611Y-95052706D01*
X135747233Y-95052706D01*
X135730863Y-95036337D01*
X135697537Y-94955881D01*
X135507663Y-94671714D01*
X135265998Y-94430049D01*
X134981831Y-94240175D01*
X134666081Y-94109387D01*
X134330883Y-94042712D01*
X133989117Y-94042712D01*
X133653919Y-94109387D01*
X133338169Y-94240175D01*
X133054002Y-94430049D01*
X132812337Y-94671714D01*
X132622463Y-94955881D01*
X132589138Y-95036336D01*
X130460475Y-97164999D01*
X125666460Y-97164999D01*
X125689502Y-97121892D01*
X125725812Y-97002194D01*
X125738072Y-96877712D01*
X125735000Y-96063462D01*
X125576250Y-95904712D01*
X124127000Y-95904712D01*
X124127000Y-95924712D01*
X123873000Y-95924712D01*
X123873000Y-95904712D01*
X122423750Y-95904712D01*
X122265000Y-96063462D01*
X122261928Y-96877712D01*
X122274188Y-97002194D01*
X122310498Y-97121892D01*
X122333540Y-97164999D01*
X118477237Y-97164999D01*
X118146857Y-96834619D01*
X118154494Y-96830537D01*
X118251185Y-96751185D01*
X118330537Y-96654494D01*
X118389502Y-96544180D01*
X118425812Y-96424482D01*
X118438072Y-96300000D01*
X118435000Y-95785750D01*
X118276250Y-95627000D01*
X117127000Y-95627000D01*
X117127000Y-95647000D01*
X116873000Y-95647000D01*
X116873000Y-95627000D01*
X115723750Y-95627000D01*
X115565000Y-95785750D01*
X115561928Y-96300000D01*
X115574188Y-96424482D01*
X115610498Y-96544180D01*
X115669463Y-96654494D01*
X115748815Y-96751185D01*
X115845506Y-96830537D01*
X115846853Y-96831257D01*
X115838287Y-96838287D01*
X115633970Y-97087248D01*
X115482148Y-97371286D01*
X115388658Y-97679484D01*
X115357089Y-98000000D01*
X115388658Y-98320516D01*
X115482148Y-98628714D01*
X115633970Y-98912752D01*
X115787085Y-99099323D01*
X116587076Y-99899314D01*
X116638285Y-99961713D01*
X116700684Y-100012922D01*
X117565010Y-100877249D01*
X117565010Y-103371299D01*
X117285750Y-103372500D01*
X117127000Y-103531250D01*
X117127000Y-104833000D01*
X117147000Y-104833000D01*
X117147000Y-105087000D01*
X117127000Y-105087000D01*
X117127000Y-105107000D01*
X116873000Y-105107000D01*
X116873000Y-105087000D01*
X115523750Y-105087000D01*
X115365000Y-105245750D01*
X115362147Y-105865000D01*
X112635000Y-105865000D01*
X112635000Y-104007500D01*
X115361928Y-104007500D01*
X115365000Y-104674250D01*
X115523750Y-104833000D01*
X116873000Y-104833000D01*
X116873000Y-103531250D01*
X116714250Y-103372500D01*
X116000000Y-103369428D01*
X115875518Y-103381688D01*
X115755820Y-103417998D01*
X115645506Y-103476963D01*
X115548815Y-103556315D01*
X115469463Y-103653006D01*
X115410498Y-103763320D01*
X115374188Y-103883018D01*
X115361928Y-104007500D01*
X112635000Y-104007500D01*
X112635000Y-100919678D01*
X112611343Y-100679484D01*
X112517852Y-100371285D01*
X112366031Y-100087248D01*
X112161714Y-99838286D01*
X112153148Y-99831256D01*
X112154494Y-99830537D01*
X112251185Y-99751185D01*
X112330537Y-99654494D01*
X112389502Y-99544180D01*
X112425812Y-99424482D01*
X112438072Y-99300000D01*
X112435000Y-98785750D01*
X112276250Y-98627000D01*
X111127000Y-98627000D01*
X111127000Y-98647000D01*
X110873000Y-98647000D01*
X110873000Y-98627000D01*
X109723750Y-98627000D01*
X109565000Y-98785750D01*
X109561928Y-99300000D01*
X109574188Y-99424482D01*
X109610498Y-99544180D01*
X109669463Y-99654494D01*
X109748815Y-99751185D01*
X109845506Y-99830537D01*
X109846852Y-99831256D01*
X109838286Y-99838286D01*
X109633969Y-100087249D01*
X109482148Y-100371286D01*
X109388657Y-100679485D01*
X109365000Y-100919679D01*
X109365001Y-105870385D01*
X109179484Y-105888657D01*
X108871285Y-105982148D01*
X108587248Y-106133969D01*
X108338286Y-106338286D01*
X108287080Y-106400681D01*
X102443401Y-112244361D01*
X102152152Y-112365000D01*
X83847848Y-112365000D01*
X83535250Y-112235518D01*
X83180732Y-112165000D01*
X82819268Y-112165000D01*
X82464750Y-112235518D01*
X82152152Y-112365000D01*
X63927848Y-112365000D01*
X63615250Y-112235518D01*
X63260732Y-112165000D01*
X62899268Y-112165000D01*
X62544750Y-112235518D01*
X62210801Y-112373844D01*
X61910256Y-112574662D01*
X61654662Y-112830256D01*
X61453844Y-113130801D01*
X61315518Y-113464750D01*
X61245000Y-113819268D01*
X55635000Y-113819268D01*
X55635000Y-107700000D01*
X61241928Y-107700000D01*
X61254188Y-107824482D01*
X61290498Y-107944180D01*
X61349463Y-108054494D01*
X61428815Y-108151185D01*
X61525506Y-108230537D01*
X61635820Y-108289502D01*
X61755518Y-108325812D01*
X61880000Y-108338072D01*
X62794250Y-108335000D01*
X62953000Y-108176250D01*
X62953000Y-106627000D01*
X63207000Y-106627000D01*
X63207000Y-108176250D01*
X63365750Y-108335000D01*
X64280000Y-108338072D01*
X64404482Y-108325812D01*
X64524180Y-108289502D01*
X64634494Y-108230537D01*
X64731185Y-108151185D01*
X64810537Y-108054494D01*
X64869502Y-107944180D01*
X64905812Y-107824482D01*
X64918072Y-107700000D01*
X81161928Y-107700000D01*
X81174188Y-107824482D01*
X81210498Y-107944180D01*
X81269463Y-108054494D01*
X81348815Y-108151185D01*
X81445506Y-108230537D01*
X81555820Y-108289502D01*
X81675518Y-108325812D01*
X81800000Y-108338072D01*
X82714250Y-108335000D01*
X82873000Y-108176250D01*
X82873000Y-106627000D01*
X83127000Y-106627000D01*
X83127000Y-108176250D01*
X83285750Y-108335000D01*
X84200000Y-108338072D01*
X84324482Y-108325812D01*
X84444180Y-108289502D01*
X84554494Y-108230537D01*
X84651185Y-108151185D01*
X84730537Y-108054494D01*
X84789502Y-107944180D01*
X84825812Y-107824482D01*
X84838072Y-107700000D01*
X101161928Y-107700000D01*
X101174188Y-107824482D01*
X101210498Y-107944180D01*
X101269463Y-108054494D01*
X101348815Y-108151185D01*
X101445506Y-108230537D01*
X101555820Y-108289502D01*
X101675518Y-108325812D01*
X101800000Y-108338072D01*
X102714250Y-108335000D01*
X102873000Y-108176250D01*
X102873000Y-106627000D01*
X103127000Y-106627000D01*
X103127000Y-108176250D01*
X103285750Y-108335000D01*
X104200000Y-108338072D01*
X104324482Y-108325812D01*
X104444180Y-108289502D01*
X104554494Y-108230537D01*
X104651185Y-108151185D01*
X104730537Y-108054494D01*
X104789502Y-107944180D01*
X104825812Y-107824482D01*
X104838072Y-107700000D01*
X104835000Y-106785750D01*
X104676250Y-106627000D01*
X103127000Y-106627000D01*
X102873000Y-106627000D01*
X101323750Y-106627000D01*
X101165000Y-106785750D01*
X101161928Y-107700000D01*
X84838072Y-107700000D01*
X84835000Y-106785750D01*
X84676250Y-106627000D01*
X83127000Y-106627000D01*
X82873000Y-106627000D01*
X81323750Y-106627000D01*
X81165000Y-106785750D01*
X81161928Y-107700000D01*
X64918072Y-107700000D01*
X64915000Y-106785750D01*
X64756250Y-106627000D01*
X63207000Y-106627000D01*
X62953000Y-106627000D01*
X61403750Y-106627000D01*
X61245000Y-106785750D01*
X61241928Y-107700000D01*
X55635000Y-107700000D01*
X55635000Y-105300000D01*
X61241928Y-105300000D01*
X61245000Y-106214250D01*
X61403750Y-106373000D01*
X62953000Y-106373000D01*
X62953000Y-104823750D01*
X63207000Y-104823750D01*
X63207000Y-106373000D01*
X64756250Y-106373000D01*
X64915000Y-106214250D01*
X64918072Y-105300000D01*
X81161928Y-105300000D01*
X81165000Y-106214250D01*
X81323750Y-106373000D01*
X82873000Y-106373000D01*
X82873000Y-104823750D01*
X83127000Y-104823750D01*
X83127000Y-106373000D01*
X84676250Y-106373000D01*
X84835000Y-106214250D01*
X84838072Y-105300000D01*
X101161928Y-105300000D01*
X101165000Y-106214250D01*
X101323750Y-106373000D01*
X102873000Y-106373000D01*
X102873000Y-104823750D01*
X103127000Y-104823750D01*
X103127000Y-106373000D01*
X104676250Y-106373000D01*
X104835000Y-106214250D01*
X104838072Y-105300000D01*
X104825812Y-105175518D01*
X104789502Y-105055820D01*
X104730537Y-104945506D01*
X104651185Y-104848815D01*
X104554494Y-104769463D01*
X104444180Y-104710498D01*
X104324482Y-104674188D01*
X104200000Y-104661928D01*
X103285750Y-104665000D01*
X103127000Y-104823750D01*
X102873000Y-104823750D01*
X102714250Y-104665000D01*
X101800000Y-104661928D01*
X101675518Y-104674188D01*
X101555820Y-104710498D01*
X101445506Y-104769463D01*
X101348815Y-104848815D01*
X101269463Y-104945506D01*
X101210498Y-105055820D01*
X101174188Y-105175518D01*
X101161928Y-105300000D01*
X84838072Y-105300000D01*
X84825812Y-105175518D01*
X84789502Y-105055820D01*
X84730537Y-104945506D01*
X84651185Y-104848815D01*
X84554494Y-104769463D01*
X84444180Y-104710498D01*
X84324482Y-104674188D01*
X84200000Y-104661928D01*
X83285750Y-104665000D01*
X83127000Y-104823750D01*
X82873000Y-104823750D01*
X82714250Y-104665000D01*
X81800000Y-104661928D01*
X81675518Y-104674188D01*
X81555820Y-104710498D01*
X81445506Y-104769463D01*
X81348815Y-104848815D01*
X81269463Y-104945506D01*
X81210498Y-105055820D01*
X81174188Y-105175518D01*
X81161928Y-105300000D01*
X64918072Y-105300000D01*
X64905812Y-105175518D01*
X64869502Y-105055820D01*
X64810537Y-104945506D01*
X64731185Y-104848815D01*
X64634494Y-104769463D01*
X64524180Y-104710498D01*
X64404482Y-104674188D01*
X64280000Y-104661928D01*
X63365750Y-104665000D01*
X63207000Y-104823750D01*
X62953000Y-104823750D01*
X62794250Y-104665000D01*
X61880000Y-104661928D01*
X61755518Y-104674188D01*
X61635820Y-104710498D01*
X61525506Y-104769463D01*
X61428815Y-104848815D01*
X61349463Y-104945506D01*
X61290498Y-105055820D01*
X61254188Y-105175518D01*
X61241928Y-105300000D01*
X55635000Y-105300000D01*
X55635000Y-97700000D01*
X109561928Y-97700000D01*
X109565000Y-98214250D01*
X109723750Y-98373000D01*
X110873000Y-98373000D01*
X110873000Y-97223750D01*
X111127000Y-97223750D01*
X111127000Y-98373000D01*
X112276250Y-98373000D01*
X112435000Y-98214250D01*
X112438072Y-97700000D01*
X112425812Y-97575518D01*
X112389502Y-97455820D01*
X112330537Y-97345506D01*
X112251185Y-97248815D01*
X112154494Y-97169463D01*
X112044180Y-97110498D01*
X111924482Y-97074188D01*
X111800000Y-97061928D01*
X111285750Y-97065000D01*
X111127000Y-97223750D01*
X110873000Y-97223750D01*
X110714250Y-97065000D01*
X110200000Y-97061928D01*
X110075518Y-97074188D01*
X109955820Y-97110498D01*
X109845506Y-97169463D01*
X109748815Y-97248815D01*
X109669463Y-97345506D01*
X109610498Y-97455820D01*
X109574188Y-97575518D01*
X109561928Y-97700000D01*
X55635000Y-97700000D01*
X55635000Y-94777980D01*
X61981626Y-94777980D01*
X62101514Y-95062836D01*
X62425210Y-95223699D01*
X62774069Y-95318322D01*
X63134684Y-95343067D01*
X63493198Y-95296985D01*
X63835833Y-95181846D01*
X64058486Y-95062836D01*
X64178374Y-94777980D01*
X81901626Y-94777980D01*
X82021514Y-95062836D01*
X82345210Y-95223699D01*
X82694069Y-95318322D01*
X83054684Y-95343067D01*
X83413198Y-95296985D01*
X83755833Y-95181846D01*
X83978486Y-95062836D01*
X84098374Y-94777980D01*
X101901626Y-94777980D01*
X102021514Y-95062836D01*
X102345210Y-95223699D01*
X102694069Y-95318322D01*
X103054684Y-95343067D01*
X103413198Y-95296985D01*
X103755833Y-95181846D01*
X103978486Y-95062836D01*
X104098374Y-94777980D01*
X104020395Y-94700000D01*
X115561928Y-94700000D01*
X115565000Y-95214250D01*
X115723750Y-95373000D01*
X116873000Y-95373000D01*
X116873000Y-94223750D01*
X117127000Y-94223750D01*
X117127000Y-95373000D01*
X118276250Y-95373000D01*
X118435000Y-95214250D01*
X118438072Y-94700000D01*
X118435877Y-94677712D01*
X122261928Y-94677712D01*
X122265000Y-95491962D01*
X122423750Y-95650712D01*
X123873000Y-95650712D01*
X123873000Y-94201462D01*
X124127000Y-94201462D01*
X124127000Y-95650712D01*
X125576250Y-95650712D01*
X125735000Y-95491962D01*
X125738072Y-94677712D01*
X125725812Y-94553230D01*
X125689502Y-94433532D01*
X125630537Y-94323218D01*
X125551185Y-94226527D01*
X125454494Y-94147175D01*
X125344180Y-94088210D01*
X125224482Y-94051900D01*
X125100000Y-94039640D01*
X124285750Y-94042712D01*
X124127000Y-94201462D01*
X123873000Y-94201462D01*
X123714250Y-94042712D01*
X122900000Y-94039640D01*
X122775518Y-94051900D01*
X122655820Y-94088210D01*
X122545506Y-94147175D01*
X122448815Y-94226527D01*
X122369463Y-94323218D01*
X122310498Y-94433532D01*
X122274188Y-94553230D01*
X122261928Y-94677712D01*
X118435877Y-94677712D01*
X118425812Y-94575518D01*
X118389502Y-94455820D01*
X118330537Y-94345506D01*
X118251185Y-94248815D01*
X118154494Y-94169463D01*
X118044180Y-94110498D01*
X117924482Y-94074188D01*
X117800000Y-94061928D01*
X117285750Y-94065000D01*
X117127000Y-94223750D01*
X116873000Y-94223750D01*
X116714250Y-94065000D01*
X116200000Y-94061928D01*
X116075518Y-94074188D01*
X115955820Y-94110498D01*
X115845506Y-94169463D01*
X115748815Y-94248815D01*
X115669463Y-94345506D01*
X115610498Y-94455820D01*
X115574188Y-94575518D01*
X115561928Y-94700000D01*
X104020395Y-94700000D01*
X103000000Y-93679605D01*
X101901626Y-94777980D01*
X84098374Y-94777980D01*
X83000000Y-93679605D01*
X81901626Y-94777980D01*
X64178374Y-94777980D01*
X63080000Y-93679605D01*
X61981626Y-94777980D01*
X55635000Y-94777980D01*
X55635000Y-93554684D01*
X61236933Y-93554684D01*
X61283015Y-93913198D01*
X61398154Y-94255833D01*
X61517164Y-94478486D01*
X61802020Y-94598374D01*
X62900395Y-93500000D01*
X63259605Y-93500000D01*
X64357980Y-94598374D01*
X64642836Y-94478486D01*
X64803699Y-94154790D01*
X64898322Y-93805931D01*
X64915562Y-93554684D01*
X81156933Y-93554684D01*
X81203015Y-93913198D01*
X81318154Y-94255833D01*
X81437164Y-94478486D01*
X81722020Y-94598374D01*
X82820395Y-93500000D01*
X83179605Y-93500000D01*
X84277980Y-94598374D01*
X84562836Y-94478486D01*
X84723699Y-94154790D01*
X84818322Y-93805931D01*
X84835562Y-93554684D01*
X101156933Y-93554684D01*
X101203015Y-93913198D01*
X101318154Y-94255833D01*
X101437164Y-94478486D01*
X101722020Y-94598374D01*
X102820395Y-93500000D01*
X103179605Y-93500000D01*
X104277980Y-94598374D01*
X104562836Y-94478486D01*
X104723699Y-94154790D01*
X104818322Y-93805931D01*
X104826524Y-93686395D01*
X144116000Y-93686395D01*
X145250000Y-94820395D01*
X146384000Y-93686395D01*
X146258086Y-93396423D01*
X145925874Y-93230567D01*
X145567688Y-93132710D01*
X145197294Y-93106611D01*
X144828925Y-93153275D01*
X144476738Y-93270906D01*
X144241914Y-93396423D01*
X144116000Y-93686395D01*
X104826524Y-93686395D01*
X104843067Y-93445316D01*
X104796985Y-93086802D01*
X104681846Y-92744167D01*
X104562836Y-92521514D01*
X104494379Y-92492702D01*
X116186903Y-92492702D01*
X116258486Y-92736671D01*
X116513996Y-92857571D01*
X116788184Y-92926300D01*
X117070512Y-92940217D01*
X117350130Y-92898787D01*
X117616292Y-92803603D01*
X117741514Y-92736671D01*
X117813097Y-92492702D01*
X117000000Y-91679605D01*
X116186903Y-92492702D01*
X104494379Y-92492702D01*
X104277980Y-92401626D01*
X103179605Y-93500000D01*
X102820395Y-93500000D01*
X101722020Y-92401626D01*
X101437164Y-92521514D01*
X101276301Y-92845210D01*
X101181678Y-93194069D01*
X101156933Y-93554684D01*
X84835562Y-93554684D01*
X84843067Y-93445316D01*
X84796985Y-93086802D01*
X84681846Y-92744167D01*
X84562836Y-92521514D01*
X84277980Y-92401626D01*
X83179605Y-93500000D01*
X82820395Y-93500000D01*
X81722020Y-92401626D01*
X81437164Y-92521514D01*
X81276301Y-92845210D01*
X81181678Y-93194069D01*
X81156933Y-93554684D01*
X64915562Y-93554684D01*
X64923067Y-93445316D01*
X64876985Y-93086802D01*
X64761846Y-92744167D01*
X64642836Y-92521514D01*
X64357980Y-92401626D01*
X63259605Y-93500000D01*
X62900395Y-93500000D01*
X61802020Y-92401626D01*
X61517164Y-92521514D01*
X61356301Y-92845210D01*
X61261678Y-93194069D01*
X61236933Y-93554684D01*
X55635000Y-93554684D01*
X55635000Y-92222020D01*
X61981626Y-92222020D01*
X63080000Y-93320395D01*
X64178374Y-92222020D01*
X81901626Y-92222020D01*
X83000000Y-93320395D01*
X84098374Y-92222020D01*
X101901626Y-92222020D01*
X103000000Y-93320395D01*
X104098374Y-92222020D01*
X103978486Y-91937164D01*
X103654790Y-91776301D01*
X103305931Y-91681678D01*
X102945316Y-91656933D01*
X102586802Y-91703015D01*
X102244167Y-91818154D01*
X102021514Y-91937164D01*
X101901626Y-92222020D01*
X84098374Y-92222020D01*
X83978486Y-91937164D01*
X83654790Y-91776301D01*
X83305931Y-91681678D01*
X82945316Y-91656933D01*
X82586802Y-91703015D01*
X82244167Y-91818154D01*
X82021514Y-91937164D01*
X81901626Y-92222020D01*
X64178374Y-92222020D01*
X64058486Y-91937164D01*
X63734790Y-91776301D01*
X63385931Y-91681678D01*
X63025316Y-91656933D01*
X62666802Y-91703015D01*
X62324167Y-91818154D01*
X62101514Y-91937164D01*
X61981626Y-92222020D01*
X55635000Y-92222020D01*
X55635000Y-91570512D01*
X115559783Y-91570512D01*
X115601213Y-91850130D01*
X115696397Y-92116292D01*
X115763329Y-92241514D01*
X116007298Y-92313097D01*
X116820395Y-91500000D01*
X116007298Y-90686903D01*
X115763329Y-90758486D01*
X115642429Y-91013996D01*
X115573700Y-91288184D01*
X115559783Y-91570512D01*
X55635000Y-91570512D01*
X55635000Y-77247237D01*
X56261928Y-76620309D01*
X56261928Y-78600000D01*
X56274188Y-78724482D01*
X56310498Y-78844180D01*
X56365000Y-78946145D01*
X56365001Y-80839671D01*
X56357089Y-80920000D01*
X56388658Y-81240516D01*
X56482148Y-81548714D01*
X56595999Y-81761714D01*
X56633970Y-81832752D01*
X56838287Y-82081714D01*
X56900682Y-82132920D01*
X61241928Y-86474167D01*
X61241928Y-87200000D01*
X61254188Y-87324482D01*
X61290498Y-87444180D01*
X61349463Y-87554494D01*
X61428815Y-87651185D01*
X61525506Y-87730537D01*
X61635820Y-87789502D01*
X61755518Y-87825812D01*
X61880000Y-87838072D01*
X64280000Y-87838072D01*
X64404482Y-87825812D01*
X64524180Y-87789502D01*
X64634494Y-87730537D01*
X64731185Y-87651185D01*
X64744468Y-87635000D01*
X81335532Y-87635000D01*
X81348815Y-87651185D01*
X81445506Y-87730537D01*
X81555820Y-87789502D01*
X81675518Y-87825812D01*
X81800000Y-87838072D01*
X84200000Y-87838072D01*
X84324482Y-87825812D01*
X84444180Y-87789502D01*
X84554494Y-87730537D01*
X84651185Y-87651185D01*
X84664468Y-87635000D01*
X101335532Y-87635000D01*
X101348815Y-87651185D01*
X101445506Y-87730537D01*
X101555820Y-87789502D01*
X101675518Y-87825812D01*
X101800000Y-87838072D01*
X104200000Y-87838072D01*
X104324482Y-87825812D01*
X104444180Y-87789502D01*
X104554494Y-87730537D01*
X104651185Y-87651185D01*
X104730537Y-87554494D01*
X104789502Y-87444180D01*
X104825812Y-87324482D01*
X104838072Y-87200000D01*
X104838072Y-84800000D01*
X104825812Y-84675518D01*
X104789502Y-84555820D01*
X104730537Y-84445506D01*
X104651185Y-84348815D01*
X104635000Y-84335532D01*
X104635000Y-83477238D01*
X106072238Y-82040000D01*
X115357089Y-82040000D01*
X115365000Y-82120322D01*
X115365001Y-88919668D01*
X115357089Y-89000000D01*
X115388657Y-89320516D01*
X115482148Y-89628715D01*
X115561928Y-89777973D01*
X115561928Y-89800000D01*
X115574188Y-89924482D01*
X115610498Y-90044180D01*
X115669463Y-90154494D01*
X115748815Y-90251185D01*
X115845506Y-90330537D01*
X115955820Y-90389502D01*
X116075518Y-90425812D01*
X116200000Y-90438072D01*
X116207215Y-90438072D01*
X116186903Y-90507298D01*
X117000000Y-91320395D01*
X117014143Y-91306253D01*
X117193748Y-91485858D01*
X117179605Y-91500000D01*
X117992702Y-92313097D01*
X118236671Y-92241514D01*
X118357571Y-91986004D01*
X118426300Y-91711816D01*
X118440217Y-91429488D01*
X118398787Y-91149870D01*
X118303603Y-90883708D01*
X118236671Y-90758486D01*
X117992704Y-90686903D01*
X118044607Y-90635000D01*
X121142762Y-90635000D01*
X122261928Y-91754167D01*
X122261928Y-92280000D01*
X122274188Y-92404482D01*
X122310498Y-92524180D01*
X122369463Y-92634494D01*
X122448815Y-92731185D01*
X122545506Y-92810537D01*
X122655820Y-92869502D01*
X122775518Y-92905812D01*
X122900000Y-92918072D01*
X125100000Y-92918072D01*
X125224482Y-92905812D01*
X125344180Y-92869502D01*
X125454494Y-92810537D01*
X125551185Y-92731185D01*
X125630537Y-92634494D01*
X125689502Y-92524180D01*
X125725812Y-92404482D01*
X125738072Y-92280000D01*
X125738072Y-91754166D01*
X125916116Y-91576122D01*
X132470825Y-91576122D01*
X132535425Y-91789094D01*
X132685469Y-92094329D01*
X132892178Y-92364427D01*
X133147609Y-92589008D01*
X133441946Y-92759442D01*
X133763877Y-92869179D01*
X134033000Y-92751600D01*
X134033000Y-91307000D01*
X134287000Y-91307000D01*
X134287000Y-92751600D01*
X134556123Y-92869179D01*
X134878054Y-92759442D01*
X135172391Y-92589008D01*
X135427822Y-92364427D01*
X135634531Y-92094329D01*
X135784575Y-91789094D01*
X135849175Y-91576122D01*
X135731125Y-91307000D01*
X134287000Y-91307000D01*
X134033000Y-91307000D01*
X132588875Y-91307000D01*
X132470825Y-91576122D01*
X125916116Y-91576122D01*
X126708360Y-90783878D01*
X132470825Y-90783878D01*
X132588875Y-91053000D01*
X134033000Y-91053000D01*
X134033000Y-89608400D01*
X134287000Y-89608400D01*
X134287000Y-91053000D01*
X135731125Y-91053000D01*
X135849175Y-90783878D01*
X135784575Y-90570906D01*
X135634531Y-90265671D01*
X135427822Y-89995573D01*
X135172391Y-89770992D01*
X134878054Y-89600558D01*
X134556123Y-89490821D01*
X134287000Y-89608400D01*
X134033000Y-89608400D01*
X133763877Y-89490821D01*
X133441946Y-89600558D01*
X133147609Y-89770992D01*
X132892178Y-89995573D01*
X132685469Y-90265671D01*
X132535425Y-90570906D01*
X132470825Y-90783878D01*
X126708360Y-90783878D01*
X128742238Y-88750000D01*
X143361928Y-88750000D01*
X143361928Y-91250000D01*
X143374188Y-91374482D01*
X143410498Y-91494180D01*
X143469463Y-91604494D01*
X143548815Y-91701185D01*
X143645506Y-91780537D01*
X143755820Y-91839502D01*
X143875518Y-91875812D01*
X144000000Y-91888072D01*
X146500000Y-91888072D01*
X146624482Y-91875812D01*
X146744180Y-91839502D01*
X146854494Y-91780537D01*
X146951185Y-91701185D01*
X147030537Y-91604494D01*
X147089502Y-91494180D01*
X147125812Y-91374482D01*
X147138072Y-91250000D01*
X147138072Y-90418671D01*
X147266031Y-90262752D01*
X147417852Y-89978715D01*
X147511343Y-89670516D01*
X147535000Y-89430322D01*
X147542911Y-89350000D01*
X147535000Y-89269678D01*
X147535000Y-82777239D01*
X148259323Y-82052916D01*
X148321714Y-82001714D01*
X148526031Y-81752752D01*
X148677852Y-81468715D01*
X148732899Y-81287249D01*
X148771343Y-81160517D01*
X148802911Y-80840000D01*
X148795000Y-80759678D01*
X148795000Y-76119678D01*
X148771343Y-75879484D01*
X148677852Y-75571285D01*
X148526031Y-75287248D01*
X148321714Y-75038286D01*
X148072751Y-74833969D01*
X147788714Y-74682148D01*
X147480515Y-74588657D01*
X147160000Y-74557089D01*
X146839484Y-74588657D01*
X146531285Y-74682148D01*
X146247248Y-74833969D01*
X145998286Y-75038286D01*
X145793969Y-75287249D01*
X145642148Y-75571286D01*
X145548657Y-75879485D01*
X145525000Y-76119679D01*
X145525001Y-80162760D01*
X144787085Y-80900677D01*
X144633970Y-81087248D01*
X144482148Y-81371286D01*
X144473091Y-81401144D01*
X144382148Y-81571286D01*
X144288657Y-81879485D01*
X144265000Y-82119679D01*
X144265001Y-88111928D01*
X144000000Y-88111928D01*
X143875518Y-88124188D01*
X143755820Y-88160498D01*
X143645506Y-88219463D01*
X143548815Y-88298815D01*
X143469463Y-88395506D01*
X143410498Y-88505820D01*
X143374188Y-88625518D01*
X143361928Y-88750000D01*
X128742238Y-88750000D01*
X135257239Y-82235000D01*
X140880322Y-82235000D01*
X141120516Y-82211343D01*
X141428715Y-82117852D01*
X141712752Y-81966031D01*
X141961714Y-81761714D01*
X142166031Y-81512752D01*
X142317852Y-81228715D01*
X142411343Y-80920516D01*
X142442911Y-80600000D01*
X142411343Y-80279484D01*
X142317852Y-79971285D01*
X142166031Y-79687248D01*
X141961714Y-79438286D01*
X141712752Y-79233969D01*
X141428715Y-79082148D01*
X141120516Y-78988657D01*
X140880322Y-78965000D01*
X134660319Y-78965000D01*
X134579999Y-78957089D01*
X134499679Y-78965000D01*
X134499678Y-78965000D01*
X134259484Y-78988657D01*
X133951285Y-79082148D01*
X133667248Y-79233969D01*
X133418286Y-79438286D01*
X133367080Y-79500681D01*
X124000000Y-88867761D01*
X123032924Y-87900686D01*
X122981714Y-87838286D01*
X122732752Y-87633969D01*
X122448715Y-87482148D01*
X122140516Y-87388657D01*
X121900322Y-87365000D01*
X121900319Y-87365000D01*
X121820000Y-87357089D01*
X121739681Y-87365000D01*
X118635000Y-87365000D01*
X118635000Y-83675000D01*
X119919681Y-83675000D01*
X120000000Y-83682911D01*
X120080319Y-83675000D01*
X120080322Y-83675000D01*
X120320516Y-83651343D01*
X120628715Y-83557852D01*
X120912752Y-83406031D01*
X121161714Y-83201714D01*
X121212925Y-83139313D01*
X128152238Y-76200000D01*
X137897089Y-76200000D01*
X137928658Y-76520516D01*
X138022148Y-76828714D01*
X138173970Y-77112752D01*
X138378287Y-77361713D01*
X138627248Y-77566030D01*
X138911286Y-77717852D01*
X139219484Y-77811342D01*
X139540000Y-77842911D01*
X139860516Y-77811342D01*
X140168714Y-77717852D01*
X140452752Y-77566030D01*
X140639323Y-77412915D01*
X142099318Y-75952921D01*
X142161714Y-75901714D01*
X142366031Y-75652752D01*
X142517852Y-75368715D01*
X142543174Y-75285241D01*
X142611343Y-75060517D01*
X142642911Y-74740000D01*
X142635000Y-74659678D01*
X142635000Y-71159678D01*
X142611343Y-70919484D01*
X142517852Y-70611285D01*
X142366031Y-70327248D01*
X142219810Y-70149076D01*
X142254494Y-70130537D01*
X142351185Y-70051185D01*
X142430537Y-69954494D01*
X142489502Y-69844180D01*
X142525812Y-69724482D01*
X142538072Y-69600000D01*
X142535000Y-68985750D01*
X142376250Y-68827000D01*
X141127000Y-68827000D01*
X141127000Y-68847000D01*
X140873000Y-68847000D01*
X140873000Y-68827000D01*
X139623750Y-68827000D01*
X139465000Y-68985750D01*
X139461928Y-69600000D01*
X139474188Y-69724482D01*
X139510498Y-69844180D01*
X139569463Y-69954494D01*
X139648815Y-70051185D01*
X139745506Y-70130537D01*
X139780190Y-70149076D01*
X139633969Y-70327249D01*
X139482148Y-70611286D01*
X139388657Y-70919485D01*
X139365000Y-71159679D01*
X139365001Y-74062761D01*
X138327085Y-75100677D01*
X138173970Y-75287248D01*
X138022148Y-75571286D01*
X137928658Y-75879484D01*
X137897089Y-76200000D01*
X128152238Y-76200000D01*
X128259319Y-76092920D01*
X128321714Y-76041714D01*
X128526031Y-75792752D01*
X128677852Y-75508715D01*
X128771343Y-75200516D01*
X128795000Y-74960322D01*
X128795000Y-74960320D01*
X128802911Y-74880001D01*
X128795000Y-74799681D01*
X128795000Y-69086535D01*
X128828325Y-69006081D01*
X128895000Y-68670883D01*
X128895000Y-68329117D01*
X128828325Y-67993919D01*
X128748002Y-67800000D01*
X139461928Y-67800000D01*
X139465000Y-68414250D01*
X139623750Y-68573000D01*
X140873000Y-68573000D01*
X140873000Y-67323750D01*
X141127000Y-67323750D01*
X141127000Y-68573000D01*
X142376250Y-68573000D01*
X142535000Y-68414250D01*
X142538072Y-67800000D01*
X142525812Y-67675518D01*
X142489502Y-67555820D01*
X142430537Y-67445506D01*
X142351185Y-67348815D01*
X142254494Y-67269463D01*
X142144180Y-67210498D01*
X142024482Y-67174188D01*
X141900000Y-67161928D01*
X141285750Y-67165000D01*
X141127000Y-67323750D01*
X140873000Y-67323750D01*
X140714250Y-67165000D01*
X140100000Y-67161928D01*
X139975518Y-67174188D01*
X139855820Y-67210498D01*
X139745506Y-67269463D01*
X139648815Y-67348815D01*
X139569463Y-67445506D01*
X139510498Y-67555820D01*
X139474188Y-67675518D01*
X139461928Y-67800000D01*
X128748002Y-67800000D01*
X128697537Y-67678169D01*
X128507663Y-67394002D01*
X128265998Y-67152337D01*
X127981831Y-66962463D01*
X127666081Y-66831675D01*
X127405650Y-66779872D01*
X144765000Y-66779872D01*
X144765000Y-67220128D01*
X144850890Y-67651925D01*
X145019369Y-68058669D01*
X145263962Y-68424729D01*
X145575271Y-68736038D01*
X145941331Y-68980631D01*
X146348075Y-69149110D01*
X146779872Y-69235000D01*
X147220128Y-69235000D01*
X147651925Y-69149110D01*
X148058669Y-68980631D01*
X148424729Y-68736038D01*
X148736038Y-68424729D01*
X148980631Y-68058669D01*
X149149110Y-67651925D01*
X149235000Y-67220128D01*
X149235000Y-66779872D01*
X149149110Y-66348075D01*
X148980631Y-65941331D01*
X148736038Y-65575271D01*
X148424729Y-65263962D01*
X148058669Y-65019369D01*
X147651925Y-64850890D01*
X147220128Y-64765000D01*
X146779872Y-64765000D01*
X146348075Y-64850890D01*
X145941331Y-65019369D01*
X145575271Y-65263962D01*
X145263962Y-65575271D01*
X145019369Y-65941331D01*
X144850890Y-66348075D01*
X144765000Y-66779872D01*
X127405650Y-66779872D01*
X127330883Y-66765000D01*
X126989117Y-66765000D01*
X126653919Y-66831675D01*
X126338169Y-66962463D01*
X126054002Y-67152337D01*
X125812337Y-67394002D01*
X125622463Y-67678169D01*
X125491675Y-67993919D01*
X125425000Y-68329117D01*
X125425000Y-68670883D01*
X125491675Y-69006081D01*
X125525000Y-69086535D01*
X125525001Y-74202760D01*
X119322762Y-80405000D01*
X118345406Y-80405000D01*
X118375969Y-80366923D01*
X118519571Y-80091094D01*
X118590563Y-79872980D01*
X118470594Y-79627000D01*
X117127000Y-79627000D01*
X117127000Y-79647000D01*
X116873000Y-79647000D01*
X116873000Y-79627000D01*
X115529406Y-79627000D01*
X115409437Y-79872980D01*
X115480429Y-80091094D01*
X115624031Y-80366923D01*
X115818685Y-80609437D01*
X115990363Y-80753480D01*
X115838286Y-80878286D01*
X115633969Y-81127248D01*
X115482148Y-81411285D01*
X115388657Y-81719484D01*
X115357089Y-82040000D01*
X106072238Y-82040000D01*
X107619537Y-80492702D01*
X110186903Y-80492702D01*
X110258486Y-80736671D01*
X110513996Y-80857571D01*
X110788184Y-80926300D01*
X111070512Y-80940217D01*
X111350130Y-80898787D01*
X111616292Y-80803603D01*
X111741514Y-80736671D01*
X111813097Y-80492702D01*
X111000000Y-79679605D01*
X110186903Y-80492702D01*
X107619537Y-80492702D01*
X109477240Y-78635000D01*
X109955393Y-78635000D01*
X110007296Y-78686903D01*
X109763329Y-78758486D01*
X109642429Y-79013996D01*
X109573700Y-79288184D01*
X109559783Y-79570512D01*
X109601213Y-79850130D01*
X109696397Y-80116292D01*
X109763329Y-80241514D01*
X110007298Y-80313097D01*
X110820395Y-79500000D01*
X110806253Y-79485858D01*
X110985858Y-79306253D01*
X111000000Y-79320395D01*
X111014143Y-79306253D01*
X111193748Y-79485858D01*
X111179605Y-79500000D01*
X111992702Y-80313097D01*
X112236671Y-80241514D01*
X112357571Y-79986004D01*
X112426300Y-79711816D01*
X112440217Y-79429488D01*
X112398787Y-79149870D01*
X112303603Y-78883708D01*
X112236671Y-78758486D01*
X111992704Y-78686903D01*
X112044607Y-78635000D01*
X115623030Y-78635000D01*
X115480429Y-78908906D01*
X115409437Y-79127020D01*
X115529406Y-79373000D01*
X116873000Y-79373000D01*
X116873000Y-79353000D01*
X117127000Y-79353000D01*
X117127000Y-79373000D01*
X118470594Y-79373000D01*
X118590563Y-79127020D01*
X118519571Y-78908906D01*
X118375969Y-78633077D01*
X118262781Y-78492059D01*
X118354494Y-78443037D01*
X118451185Y-78363685D01*
X118530537Y-78266994D01*
X118589502Y-78156680D01*
X118625812Y-78036982D01*
X118638072Y-77912500D01*
X118638072Y-77009140D01*
X118642912Y-76960000D01*
X118638072Y-76910860D01*
X118638072Y-76007500D01*
X118635000Y-75976308D01*
X118635000Y-69946144D01*
X118689502Y-69844180D01*
X118725812Y-69724482D01*
X118738072Y-69600000D01*
X118738072Y-67400000D01*
X118725812Y-67275518D01*
X118689502Y-67155820D01*
X118630537Y-67045506D01*
X118551185Y-66948815D01*
X118454494Y-66869463D01*
X118344180Y-66810498D01*
X118224482Y-66774188D01*
X118100000Y-66761928D01*
X115900000Y-66761928D01*
X115775518Y-66774188D01*
X115655820Y-66810498D01*
X115545506Y-66869463D01*
X115448815Y-66948815D01*
X115369463Y-67045506D01*
X115310498Y-67155820D01*
X115274188Y-67275518D01*
X115261928Y-67400000D01*
X115261928Y-69600000D01*
X115274188Y-69724482D01*
X115310498Y-69844180D01*
X115365000Y-69946145D01*
X115365001Y-75365000D01*
X108880322Y-75365000D01*
X108800000Y-75357089D01*
X108479483Y-75388657D01*
X108209103Y-75470676D01*
X108171285Y-75482148D01*
X107887248Y-75633969D01*
X107638286Y-75838286D01*
X107587084Y-75900676D01*
X101900682Y-81587080D01*
X101838287Y-81638286D01*
X101764008Y-81728796D01*
X101633970Y-81887248D01*
X101482148Y-82171286D01*
X101388658Y-82479484D01*
X101357089Y-82800000D01*
X101365001Y-82880329D01*
X101365001Y-84335532D01*
X101348815Y-84348815D01*
X101335532Y-84365000D01*
X84664468Y-84365000D01*
X84651185Y-84348815D01*
X84554494Y-84269463D01*
X84444180Y-84210498D01*
X84324482Y-84174188D01*
X84200000Y-84161928D01*
X81800000Y-84161928D01*
X81675518Y-84174188D01*
X81555820Y-84210498D01*
X81445506Y-84269463D01*
X81348815Y-84348815D01*
X81335532Y-84365000D01*
X64744468Y-84365000D01*
X64731185Y-84348815D01*
X64634494Y-84269463D01*
X64524180Y-84210498D01*
X64404482Y-84174188D01*
X64280000Y-84161928D01*
X63554167Y-84161928D01*
X59635000Y-80242762D01*
X59635000Y-78946144D01*
X59689502Y-78844180D01*
X59725812Y-78724482D01*
X59738072Y-78600000D01*
X59738072Y-76400000D01*
X59725812Y-76275518D01*
X59689502Y-76155820D01*
X59630537Y-76045506D01*
X59551185Y-75948815D01*
X59454494Y-75869463D01*
X59344180Y-75810498D01*
X59224482Y-75774188D01*
X59100000Y-75761928D01*
X57120310Y-75761928D01*
X58247238Y-74635000D01*
X68712762Y-74635000D01*
X67418625Y-75929137D01*
X67338169Y-75962463D01*
X67054002Y-76152337D01*
X66812337Y-76394002D01*
X66622463Y-76678169D01*
X66491675Y-76993919D01*
X66425000Y-77329117D01*
X66425000Y-77670883D01*
X66491675Y-78006081D01*
X66622463Y-78321831D01*
X66812337Y-78605998D01*
X67054002Y-78847663D01*
X67338169Y-79037537D01*
X67653919Y-79168325D01*
X67989117Y-79235000D01*
X68330883Y-79235000D01*
X68666081Y-79168325D01*
X68981831Y-79037537D01*
X69265998Y-78847663D01*
X69507663Y-78605998D01*
X69697537Y-78321831D01*
X69730863Y-78241375D01*
X73053419Y-74918820D01*
X73377244Y-75052953D01*
X73789721Y-75135000D01*
X74210279Y-75135000D01*
X74622756Y-75052953D01*
X75011302Y-74892012D01*
X75360983Y-74658363D01*
X75384346Y-74635000D01*
X84615654Y-74635000D01*
X84639017Y-74658363D01*
X84988698Y-74892012D01*
X85377244Y-75052953D01*
X85789721Y-75135000D01*
X86210279Y-75135000D01*
X86622756Y-75052953D01*
X87011302Y-74892012D01*
X87360983Y-74658363D01*
X87658363Y-74360983D01*
X87892012Y-74011302D01*
X88052953Y-73622756D01*
X88135000Y-73210279D01*
X88135000Y-72789721D01*
X88052953Y-72377244D01*
X87892012Y-71988698D01*
X87658363Y-71639017D01*
X87360983Y-71341637D01*
X87011302Y-71107988D01*
X86622756Y-70947047D01*
X86210279Y-70865000D01*
X85789721Y-70865000D01*
X85377244Y-70947047D01*
X84988698Y-71107988D01*
X84639017Y-71341637D01*
X84615654Y-71365000D01*
X75384346Y-71365000D01*
X75360983Y-71341637D01*
X75011302Y-71107988D01*
X74622756Y-70947047D01*
X74210279Y-70865000D01*
X73789721Y-70865000D01*
X73377244Y-70947047D01*
X72988698Y-71107988D01*
X72639017Y-71341637D01*
X72619584Y-71361070D01*
X72579680Y-71365000D01*
X57650318Y-71365000D01*
X57569998Y-71357089D01*
X57489679Y-71365000D01*
X57489677Y-71365000D01*
X57249483Y-71388657D01*
X56941284Y-71482148D01*
X56657247Y-71633969D01*
X56408285Y-71838286D01*
X56357079Y-71900681D01*
X52900682Y-75357079D01*
X52838287Y-75408285D01*
X52633970Y-75657247D01*
X52482148Y-75941285D01*
X52388658Y-76249483D01*
X52357089Y-76569999D01*
X50660000Y-76569999D01*
X50660000Y-69500000D01*
X71861928Y-69500000D01*
X71874188Y-69624482D01*
X71910498Y-69744180D01*
X71969463Y-69854494D01*
X72048815Y-69951185D01*
X72145506Y-70030537D01*
X72255820Y-70089502D01*
X72375518Y-70125812D01*
X72500000Y-70138072D01*
X73714250Y-70135000D01*
X73873000Y-69976250D01*
X73873000Y-68127000D01*
X74127000Y-68127000D01*
X74127000Y-69976250D01*
X74285750Y-70135000D01*
X75500000Y-70138072D01*
X75624482Y-70125812D01*
X75744180Y-70089502D01*
X75854494Y-70030537D01*
X75951185Y-69951185D01*
X76030537Y-69854494D01*
X76089502Y-69744180D01*
X76125812Y-69624482D01*
X76138072Y-69500000D01*
X83861928Y-69500000D01*
X83874188Y-69624482D01*
X83910498Y-69744180D01*
X83969463Y-69854494D01*
X84048815Y-69951185D01*
X84145506Y-70030537D01*
X84255820Y-70089502D01*
X84375518Y-70125812D01*
X84500000Y-70138072D01*
X85714250Y-70135000D01*
X85873000Y-69976250D01*
X85873000Y-68127000D01*
X86127000Y-68127000D01*
X86127000Y-69976250D01*
X86285750Y-70135000D01*
X87500000Y-70138072D01*
X87624482Y-70125812D01*
X87744180Y-70089502D01*
X87854494Y-70030537D01*
X87951185Y-69951185D01*
X88030537Y-69854494D01*
X88089502Y-69744180D01*
X88125812Y-69624482D01*
X88138072Y-69500000D01*
X88135000Y-68285750D01*
X87976250Y-68127000D01*
X86127000Y-68127000D01*
X85873000Y-68127000D01*
X84023750Y-68127000D01*
X83865000Y-68285750D01*
X83861928Y-69500000D01*
X76138072Y-69500000D01*
X76135000Y-68285750D01*
X75976250Y-68127000D01*
X74127000Y-68127000D01*
X73873000Y-68127000D01*
X72023750Y-68127000D01*
X71865000Y-68285750D01*
X71861928Y-69500000D01*
X50660000Y-69500000D01*
X50660000Y-66779872D01*
X50765000Y-66779872D01*
X50765000Y-67220128D01*
X50850890Y-67651925D01*
X51019369Y-68058669D01*
X51263962Y-68424729D01*
X51575271Y-68736038D01*
X51941331Y-68980631D01*
X52348075Y-69149110D01*
X52779872Y-69235000D01*
X53220128Y-69235000D01*
X53651925Y-69149110D01*
X54058669Y-68980631D01*
X54424729Y-68736038D01*
X54736038Y-68424729D01*
X54980631Y-68058669D01*
X55149110Y-67651925D01*
X55235000Y-67220128D01*
X55235000Y-66779872D01*
X55179330Y-66500000D01*
X71861928Y-66500000D01*
X71865000Y-67714250D01*
X72023750Y-67873000D01*
X73873000Y-67873000D01*
X73873000Y-66023750D01*
X74127000Y-66023750D01*
X74127000Y-67873000D01*
X75976250Y-67873000D01*
X76135000Y-67714250D01*
X76138072Y-66500000D01*
X83861928Y-66500000D01*
X83865000Y-67714250D01*
X84023750Y-67873000D01*
X85873000Y-67873000D01*
X85873000Y-66023750D01*
X86127000Y-66023750D01*
X86127000Y-67873000D01*
X87976250Y-67873000D01*
X88135000Y-67714250D01*
X88138072Y-66500000D01*
X88125812Y-66375518D01*
X88089502Y-66255820D01*
X88030537Y-66145506D01*
X87951185Y-66048815D01*
X87854494Y-65969463D01*
X87744180Y-65910498D01*
X87624482Y-65874188D01*
X87500000Y-65861928D01*
X86285750Y-65865000D01*
X86127000Y-66023750D01*
X85873000Y-66023750D01*
X85714250Y-65865000D01*
X84500000Y-65861928D01*
X84375518Y-65874188D01*
X84255820Y-65910498D01*
X84145506Y-65969463D01*
X84048815Y-66048815D01*
X83969463Y-66145506D01*
X83910498Y-66255820D01*
X83874188Y-66375518D01*
X83861928Y-66500000D01*
X76138072Y-66500000D01*
X76125812Y-66375518D01*
X76089502Y-66255820D01*
X76030537Y-66145506D01*
X75951185Y-66048815D01*
X75854494Y-65969463D01*
X75744180Y-65910498D01*
X75624482Y-65874188D01*
X75500000Y-65861928D01*
X74285750Y-65865000D01*
X74127000Y-66023750D01*
X73873000Y-66023750D01*
X73714250Y-65865000D01*
X72500000Y-65861928D01*
X72375518Y-65874188D01*
X72255820Y-65910498D01*
X72145506Y-65969463D01*
X72048815Y-66048815D01*
X71969463Y-66145506D01*
X71910498Y-66255820D01*
X71874188Y-66375518D01*
X71861928Y-66500000D01*
X55179330Y-66500000D01*
X55149110Y-66348075D01*
X54980631Y-65941331D01*
X54736038Y-65575271D01*
X54424729Y-65263962D01*
X54058669Y-65019369D01*
X53651925Y-64850890D01*
X53220128Y-64765000D01*
X52779872Y-64765000D01*
X52348075Y-64850890D01*
X51941331Y-65019369D01*
X51575271Y-65263962D01*
X51263962Y-65575271D01*
X51019369Y-65941331D01*
X50850890Y-66348075D01*
X50765000Y-66779872D01*
X50660000Y-66779872D01*
X50660000Y-64660000D01*
X149340000Y-64660000D01*
X149340001Y-124340000D01*
G37*
%TD.AperFunction*%
%TD*%
M02*
