M48
; DRILL file {KiCad 5.1.8-db9833491~87~ubuntu20.04.1} date Tue Nov 17 16:53:56 2020
; FORMAT={-:-/ absolute / inch / decimal}
; #@! TF.CreationDate,2020-11-17T16:53:56-05:00
; #@! TF.GenerationSoftware,Kicad,Pcbnew,5.1.8-db9833491~87~ubuntu20.04.1
; #@! TF.FileFunction,Plated,1,2,PTH
FMAT,2
INCH
T1C0.0280
T2C0.0315
T3C0.0354
T4C0.0433
T5C0.0472
T6C0.0512
T7C0.0669
%
G90
G05
T1
X5.5472Y-4.248
X5.748Y-4.311
X5.5433Y-3.1732
X5.7441Y-3.2362
T2
X4.6063Y-3.7598
X4.6063Y-3.8583
X5.4937Y-3.0
X5.7937Y-3.0
X4.6063Y-3.5039
X4.6063Y-3.6024
X4.3701Y-3.0315
X4.3701Y-3.1299
X4.3701Y-3.878
X4.3701Y-3.9764
X5.4976Y-4.4882
X5.7976Y-4.4882
T3
X5.5512Y-4.685
X5.5512Y-4.785
X5.5512Y-2.7047
X5.5512Y-2.8047
T4
X4.6063Y-3.0299
X4.6063Y-3.1299
X4.6063Y-3.2299
X4.6063Y-4.6654
X5.0063Y-4.6654
X2.2835Y-4.8228
X2.6835Y-4.8228
X2.2835Y-3.0512
X2.6835Y-3.0512
X4.8819Y-3.7708
X5.2819Y-3.7708
X4.8819Y-3.5898
X5.2819Y-3.5898
X4.6063Y-4.1323
X4.6063Y-4.2323
X4.6063Y-4.3323
X4.6063Y-2.6969
X5.0063Y-2.6969
T5
X4.0551Y-4.1929
X4.0551Y-4.4882
X3.2677Y-3.3858
X3.2677Y-3.6811
X3.2677Y-4.1929
X3.2677Y-4.4882
X2.4835Y-3.3858
X2.4835Y-3.6811
X2.4835Y-4.1929
X2.4835Y-4.4882
X4.0551Y-3.3858
X4.0551Y-3.6811
T6
X5.7185Y-3.5433
X5.7185Y-3.7402
X5.7185Y-3.937
T7
X3.3858Y-2.6772
X3.3858Y-2.874
X2.9134Y-2.6772
X2.9134Y-2.874
T0
M30
